<?xml version="1.0" encoding="UTF-8"?>
<svg xmlns="http://www.w3.org/2000/svg" xmlns:xlink="http://www.w3.org/1999/xlink" width="100px" height="23px" viewBox="0 0 98 23" version="1.1">
<defs>
<clipPath id="clip1">
  <path d="M 0 0 L 23 0 L 23 22.539062 L 0 22.539062 Z M 0 0 "/>
</clipPath>
</defs>
<g id="surface1">
<g clip-path="url(#clip1)" clip-rule="nonzero">
<path style=" stroke:none;fill-rule:nonzero;fill:rgb(27.450982%,63.921571%,34.509805%);fill-opacity:1;" d="M 11.203125 0 C 5.015625 0 0 5.046875 0 11.269531 C 0 17.097656 4.402344 21.894531 10.042969 22.480469 C 9.703125 19.65625 9.828125 17.347656 10.261719 15.453125 C 10.019531 14.273438 9.464844 12.53125 8.214844 11.292969 C 8.214844 11.292969 9.039062 12.539062 9.484375 14.207031 C 9.484375 14.210938 9.488281 14.214844 9.488281 14.214844 C 9.535156 14.394531 9.578125 14.574219 9.613281 14.761719 C 9.621094 14.804688 9.628906 14.847656 9.636719 14.890625 C 9.671875 15.082031 9.703125 15.273438 9.726562 15.46875 C 3.394531 14.6875 2.042969 8.972656 2.191406 6.820312 C 8.929688 7.195312 10.304688 11.714844 10.507812 14.523438 C 12.710938 7.253906 19.71875 6.835938 20.300781 6.820312 C 20.550781 12.40625 16.433594 16.757812 11.507812 17.140625 C 11.539062 16.988281 11.578125 16.835938 11.613281 16.6875 C 11.625 16.640625 11.636719 16.597656 11.652344 16.554688 C 11.679688 16.449219 11.710938 16.339844 11.742188 16.234375 C 11.757812 16.191406 11.773438 16.140625 11.785156 16.097656 C 11.824219 15.980469 11.863281 15.867188 11.902344 15.75 C 11.914062 15.722656 11.921875 15.695312 11.929688 15.667969 C 11.980469 15.53125 12.035156 15.398438 12.085938 15.265625 C 12.09375 15.253906 12.09375 15.242188 12.101562 15.230469 C 13.367188 12.160156 15.695312 10.148438 15.695312 10.148438 C 11.121094 12.804688 10.351562 19.714844 10.230469 22.488281 C 10.550781 22.519531 10.875 22.539062 11.203125 22.539062 C 17.394531 22.539062 22.410156 17.496094 22.410156 11.269531 C 22.410156 5.046875 17.394531 0 11.203125 0 Z M 11.203125 0 "/>
</g>
<path style=" stroke:none;fill-rule:nonzero;fill:rgb(27.450982%,63.921571%,34.509805%);fill-opacity:1;" d="M 30.511719 7.0625 C 31.996094 7.0625 33.203125 7.703125 33.988281 8.871094 L 32.519531 10.128906 C 31.996094 9.386719 31.359375 9.007812 30.476562 9.007812 C 29.117188 9.007812 28.273438 9.902344 28.273438 11.273438 C 28.273438 12.664062 29.164062 13.597656 30.601562 13.597656 C 31.371094 13.597656 31.984375 13.328125 32.375 12.875 L 32.375 12.492188 L 30.488281 12.492188 L 30.488281 10.667969 L 34.480469 10.667969 L 34.480469 13.230469 C 34.101562 13.90625 33.5625 14.449219 32.863281 14.867188 C 32.167969 15.273438 31.382812 15.484375 30.511719 15.484375 C 28.089844 15.519531 26.082031 13.625 26.117188 11.273438 C 26.082031 8.933594 28.089844 7.023438 30.511719 7.0625 Z M 30.511719 7.0625 "/>
<path style=" stroke:none;fill-rule:nonzero;fill:rgb(27.450982%,63.921571%,34.509805%);fill-opacity:1;" d="M 40.480469 15.332031 L 38.65625 12.808594 L 37.789062 12.808594 L 37.789062 15.332031 L 35.683594 15.332031 L 35.683594 7.207031 L 38.851562 7.207031 C 40.652344 7.207031 41.972656 8.316406 41.972656 10.003906 C 41.972656 11 41.496094 11.824219 40.699219 12.316406 L 42.828125 15.332031 Z M 37.785156 10.960938 L 38.863281 10.960938 C 39.449219 10.960938 39.828125 10.578125 39.828125 10.003906 C 39.828125 9.425781 39.449219 9.054688 38.863281 9.054688 L 37.785156 9.054688 Z M 37.785156 10.960938 "/>
<path style=" stroke:none;fill-rule:nonzero;fill:rgb(27.450982%,63.921571%,34.509805%);fill-opacity:1;" d="M 43.664062 7.207031 L 49.269531 7.207031 L 49.269531 9.117188 L 45.769531 9.117188 L 45.769531 10.238281 L 48.265625 10.238281 L 48.265625 12.007812 L 45.769531 12.007812 L 45.769531 13.425781 L 49.417969 13.425781 L 49.417969 15.332031 L 43.664062 15.332031 Z M 43.664062 7.207031 "/>
<path style=" stroke:none;fill-rule:nonzero;fill:rgb(27.450982%,63.921571%,34.509805%);fill-opacity:1;" d="M 50.726562 7.207031 L 56.332031 7.207031 L 56.332031 9.117188 L 52.832031 9.117188 L 52.832031 10.238281 L 55.328125 10.238281 L 55.328125 12.007812 L 52.832031 12.007812 L 52.832031 13.425781 L 56.480469 13.425781 L 56.480469 15.332031 L 50.726562 15.332031 Z M 50.726562 7.207031 "/>
<path style=" stroke:none;fill-rule:nonzero;fill:rgb(27.450982%,63.921571%,34.509805%);fill-opacity:1;" d="M 64.953125 7.207031 L 64.953125 15.480469 L 64.28125 15.480469 L 59.898438 11.207031 L 59.898438 15.332031 L 57.792969 15.332031 L 57.792969 7.058594 L 58.464844 7.058594 L 62.847656 11.269531 L 62.847656 7.207031 Z M 64.953125 7.207031 "/>
<path style=" stroke:none;fill-rule:nonzero;fill:rgb(27.450982%,63.921571%,34.509805%);fill-opacity:1;" d="M 67.464844 12.574219 C 67.945312 13.214844 68.445312 13.621094 69.265625 13.621094 C 69.816406 13.621094 70.097656 13.425781 70.097656 13.027344 C 70.097656 12.671875 69.910156 12.5625 69.273438 12.277344 L 68.441406 11.90625 C 67.109375 11.316406 66.398438 10.550781 66.398438 9.457031 C 66.398438 8.019531 67.574219 7.054688 69.226562 7.054688 C 70.558594 7.054688 71.503906 7.695312 71.992188 8.691406 L 70.582031 9.777344 C 70.191406 9.1875 69.824219 8.917969 69.25 8.917969 C 68.808594 8.917969 68.527344 9.089844 68.527344 9.433594 C 68.527344 9.730469 68.699219 9.890625 69.226562 10.097656 L 70.15625 10.492188 C 71.5625 11.085938 72.222656 11.796875 72.222656 12.941406 C 72.222656 14.515625 70.9375 15.476562 69.257812 15.476562 C 67.804688 15.476562 66.628906 14.777344 66.039062 13.65625 Z M 67.464844 12.574219 "/>
<path style=" stroke:none;fill-rule:nonzero;fill:rgb(27.450982%,63.921571%,34.509805%);fill-opacity:1;" d="M 73.429688 7.207031 L 75.535156 7.207031 L 75.535156 10.175781 L 78.484375 10.175781 L 78.484375 7.207031 L 80.589844 7.207031 L 80.589844 15.332031 L 78.484375 15.332031 L 78.484375 12.082031 L 75.535156 12.082031 L 75.535156 15.332031 L 73.429688 15.332031 Z M 73.429688 7.207031 "/>
<path style=" stroke:none;fill-rule:nonzero;fill:rgb(27.450982%,63.921571%,34.509805%);fill-opacity:1;" d="M 86.136719 7.058594 C 88.488281 7.007812 90.554688 8.941406 90.507812 11.269531 C 90.554688 13.621094 88.488281 15.519531 86.136719 15.480469 C 83.777344 15.519531 81.742188 13.621094 81.792969 11.269531 C 81.742188 8.941406 83.777344 7.011719 86.136719 7.058594 Z M 86.148438 9.003906 C 84.851562 9.003906 83.945312 9.929688 83.945312 11.269531 C 83.945312 11.949219 84.152344 12.5 84.558594 12.917969 C 84.960938 13.328125 85.5 13.535156 86.148438 13.535156 C 87.398438 13.535156 88.351562 12.625 88.351562 11.269531 C 88.355469 9.929688 87.398438 9.003906 86.148438 9.003906 Z M 86.148438 9.003906 "/>
<path style=" stroke:none;fill-rule:nonzero;fill:rgb(27.450982%,63.921571%,34.509805%);fill-opacity:1;" d="M 91.710938 7.207031 L 94.882812 7.207031 C 96.679688 7.207031 98.003906 8.316406 98.003906 10.003906 C 98.003906 11.664062 96.644531 12.808594 94.882812 12.808594 L 93.816406 12.808594 L 93.816406 15.332031 L 91.710938 15.332031 Z M 94.890625 10.960938 C 95.476562 10.960938 95.859375 10.578125 95.859375 10.003906 C 95.859375 9.425781 95.476562 9.054688 94.890625 9.054688 L 93.8125 9.054688 L 93.8125 10.960938 Z M 94.890625 10.960938 "/>
</g>
</svg>
