<svg aria-hidden="true" style="position: absolute; width: 0; height: 0; overflow: hidden;" version="1.1" xmlns="http://www.w3.org/2000/svg" xmlns:xlink="http://www.w3.org/1999/xlink">
<defs>
<symbol id="icon-arrow-soft-b" viewBox="0 0 37 32">
<path stroke-linejoin="round" stroke-linecap="round" stroke-miterlimit="4" stroke-width="4" d="M34.167 15.451h-30"></path>
<path stroke-linejoin="round" stroke-linecap="round" stroke-miterlimit="4" stroke-width="4" d="M22.066 3.402c0 0 12.1 6.522 12.1 12.046 0 5.528-12.1 12.052-12.1 12.052"></path>
</symbol>
<symbol id="icon-Arrow-big-so" viewBox="0 0 37 32">
<path stroke-linejoin="round" stroke-linecap="round" stroke-miterlimit="4" stroke-width="4" d="M34.167 15.451h-30"></path>
<path stroke-linejoin="round" stroke-linecap="round" stroke-miterlimit="4" stroke-width="4" d="M22.066 3.402c0 0 12.1 6.522 12.1 12.046 0 5.528-12.1 12.052-12.1 12.052"></path>
</symbol>
<symbol id="icon-amex" viewBox="0 0 32 32">
<path fill="#2557d6" style="fill: var(--color1, #2557d6)" d="M23.663 11.525l-0.62 1.495h1.242l-0.623-1.495zM16.513 12.451c0.117-0.061 0.186-0.193 0.186-0.357 0-0.161-0.072-0.277-0.189-0.332-0.106-0.061-0.27-0.068-0.427-0.068h-1.108v0.833h1.094c0.175 0 0.322-0.003 0.445-0.077zM2.31 11.525l-0.613 1.495h1.229l-0.616-1.495zM30.829 21.102h-1.738v-0.804h1.731c0.172 0 0.292-0.022 0.364-0.093 0.063-0.058 0.106-0.142 0.106-0.245 0-0.109-0.044-0.196-0.11-0.248-0.065-0.057-0.16-0.083-0.317-0.083-0.845-0.029-1.9 0.026-1.9-1.161 0-0.544 0.347-1.117 1.292-1.117h1.793v-0.746h-1.666c-0.503 0-0.868 0.12-1.127 0.306v-0.306h-2.464c-0.394 0-0.857 0.097-1.075 0.306v-0.306h-4.4v0.306c-0.35-0.252-0.941-0.306-1.214-0.306h-2.903v0.306c-0.277-0.267-0.893-0.306-1.269-0.306h-3.248l-0.743 0.801-0.696-0.801h-4.852v5.234h4.761l0.766-0.814 0.722 0.814 2.935 0.003v-1.231h0.289c0.389 0.006 0.849-0.009 1.254-0.184v1.413h2.421v-1.364h0.117c0.149 0 0.164 0.006 0.164 0.154v1.209h7.353c0.467 0 0.955-0.119 1.225-0.335v0.335h2.332c0.485 0 0.959-0.068 1.32-0.241v-0.975c-0.219 0.318-0.645 0.48-1.221 0.48zM15.903 19.866h-1.123v1.258h-1.75l-1.108-1.242-1.152 1.242h-3.566v-3.751h3.62l1.107 1.23 1.145-1.23h2.876c0.714 0 1.517 0.197 1.517 1.236 0 1.042-0.781 1.257-1.568 1.257zM21.304 19.696c0.127 0.183 0.145 0.354 0.149 0.685v0.744h-0.904v-0.469c0-0.226 0.022-0.56-0.145-0.734-0.131-0.134-0.332-0.166-0.66-0.166h-0.962v1.37h-0.904v-3.751h2.078c0.456 0 0.788 0.020 1.083 0.177 0.284 0.171 0.463 0.405 0.463 0.833-0 0.599-0.401 0.904-0.638 0.998 0.2 0.074 0.364 0.206 0.441 0.315zM25.023 18.149h-2.108v0.682h2.056v0.765h-2.056v0.746l2.108 0.003v0.778h-3.004v-3.751h3.004v0.776zM27.336 21.124h-1.753v-0.804h1.746c0.171 0 0.292-0.023 0.368-0.093 0.062-0.058 0.106-0.142 0.106-0.244 0-0.109-0.048-0.196-0.11-0.248-0.069-0.057-0.164-0.083-0.321-0.083-0.842-0.029-1.896 0.026-1.896-1.161 0-0.544 0.343-1.117 1.287-1.117h1.805v0.798h-1.651c-0.164 0-0.27 0.006-0.361 0.068-0.099 0.061-0.135 0.151-0.135 0.27 0 0.141 0.084 0.238 0.197 0.279 0.095 0.033 0.197 0.043 0.35 0.043l0.485 0.013c0.488 0.012 0.824 0.096 1.028 0.302 0.175 0.181 0.269 0.409 0.269 0.795-0 0.807-0.506 1.184-1.414 1.184zM32.051 20.622v0 0 0zM20.355 18.21c-0.109-0.064-0.269-0.068-0.429-0.068h-1.108v0.842h1.094c0.175 0 0.324-0.006 0.444-0.077 0.117-0.070 0.186-0.2 0.186-0.36s-0.070-0.277-0.186-0.337zM30.412 18.142c-0.164 0-0.273 0.006-0.364 0.068-0.095 0.061-0.131 0.151-0.131 0.27 0 0.141 0.080 0.238 0.197 0.279 0.095 0.033 0.197 0.043 0.347 0.043l0.488 0.013c0.492 0.012 0.821 0.096 1.021 0.302 0.036 0.029 0.058 0.061 0.083 0.093v-1.067l-1.641-0zM15.935 18.142h-1.174v0.955h1.163c0.346 0 0.561-0.171 0.561-0.495-0-0.328-0.226-0.46-0.551-0.46zM8.101 18.142v0.682h1.976v0.765h-1.976v0.746h2.213l1.028-1.1-0.985-1.093h-2.257zM13.88 20.765v-3.007l-1.382 1.479 1.382 1.528zM8.177 14.742v0.646h7.521l-0.004-1.367h0.146c0.102 0.004 0.132 0.013 0.132 0.18v1.187h3.89v-0.318c0.314 0.167 0.802 0.318 1.444 0.318h1.636l0.35-0.833h0.776l0.342 0.833h3.153v-0.791l0.477 0.791h2.527v-5.23h-2.501v0.618l-0.35-0.618h-2.566v0.618l-0.322-0.618h-3.466c-0.58 0-1.090 0.081-1.502 0.305v-0.305h-2.392v0.305c-0.262-0.232-0.619-0.305-1.017-0.305h-8.739l-0.586 1.351-0.602-1.351h-2.752v0.618l-0.302-0.618h-2.347l-1.090 2.487v1.989l1.612-3.75h1.337l1.531 3.551v-3.551h1.469l1.178 2.544 1.082-2.544h1.499v3.75h-0.923l-0.003-2.937-1.305 2.937h-0.79l-1.309-2.94v2.94h-1.831l-0.346-0.836h-1.874l-0.349 0.836h-0.978v0.754h1.538l0.347-0.833h0.776l0.346 0.833h3.026v-0.637l0.27 0.64h1.571l0.27-0.649zM20.028 11.322c0.291-0.299 0.747-0.437 1.367-0.437h0.871v0.804h-0.853c-0.328 0-0.514 0.049-0.693 0.222-0.154 0.158-0.259 0.456-0.259 0.849 0 0.402 0.080 0.691 0.247 0.881 0.139 0.148 0.39 0.193 0.627 0.193h0.404l1.269-2.949h1.349l1.524 3.547v-3.547h1.371l1.582 2.612v-2.612h0.922v3.75h-1.276l-1.706-2.815v2.815h-1.833l-0.35-0.836h-1.87l-0.34 0.836h-1.053c-0.438 0-0.991-0.096-1.305-0.415-0.316-0.318-0.481-0.75-0.481-1.432-0-0.556 0.098-1.065 0.485-1.466zM18.176 10.884h0.918v3.75h-0.918v-3.75zM14.035 10.884h2.070c0.46 0 0.799 0.012 1.090 0.18 0.285 0.168 0.456 0.412 0.456 0.83 0 0.598-0.401 0.907-0.634 1 0.197 0.075 0.365 0.207 0.445 0.316 0.127 0.187 0.149 0.353 0.149 0.688v0.737h-0.908l-0.003-0.473c0-0.226 0.022-0.55-0.142-0.731-0.131-0.132-0.332-0.161-0.656-0.161h-0.966v1.364h-0.9l-0-3.75zM10.406 10.884h3.007v0.781h-2.107v0.676h2.056v0.769h-2.056v0.749h2.107v0.776h-3.007v-3.75z"></path>
</symbol>
<symbol id="icon-arrow-big" viewBox="0 0 32 32">
<path d="M5.333 15.634c0-0.506 0.376-0.925 0.864-0.991l0.136-0.009h20c0.552 0 1 0.448 1 1 0 0.506-0.376 0.925-0.864 0.991l-0.136 0.009h-20c-0.552 0-1-0.448-1-1z"></path>
<path d="M17.561 8.31c-0.391-0.39-0.393-1.023-0.003-1.414 0.354-0.356 0.91-0.389 1.302-0.1l0.112 0.097 8.067 8.032c0.357 0.355 0.389 0.913 0.097 1.305l-0.097 0.112-8.067 8.033c-0.391 0.39-1.024 0.388-1.414-0.003-0.354-0.356-0.385-0.911-0.094-1.302l0.097-0.112 7.355-7.325-7.355-7.323z"></path>
</symbol>
<symbol id="icon-arrow-small" viewBox="0 0 32 32">
<path d="M8.455 3.027c-0.746-0.69-0.749-1.812-0.006-2.505 0.676-0.63 1.735-0.69 2.483-0.176l0.214 0.171 15.385 14.227c0.681 0.629 0.743 1.617 0.186 2.311l-0.186 0.199-15.385 14.23c-0.746 0.69-1.954 0.688-2.697-0.005-0.676-0.63-0.735-1.614-0.18-2.307l0.185-0.198 14.028-12.975-14.027-12.972z"></path>
</symbol>
<symbol id="icon-arrow-soft" viewBox="0 0 32 32">
<path stroke-linejoin="round" stroke-linecap="round" stroke-miterlimit="4" stroke-width="2.6667" d="M11.333 6.667c0 0 9.333 5.525 9.333 9.333 0 3.807-9.333 9.333-9.333 9.333"></path>
</symbol>
<symbol id="icon-ellipse-small-cart" viewBox="0 0 32 32">
<path stroke-linejoin="miter" stroke-linecap="butt" stroke-miterlimit="4" stroke-width="4" d="M30.002 16c0 7.732-6.268 14-14 14s-14-6.268-14-14c0-7.732 6.268-14 14-14s14 6.268 14 14z"></path>
</symbol>
<symbol id="icon-facebook1" viewBox="0 0 32 32">
<path d="M12 10.667h-4v5.333h4v16h6.667v-16h4.8l0.533-5.333h-5.333v-2.267c0-1.2 0.267-1.733 1.467-1.733h3.867v-6.667h-5.067c-4.8 0-6.933 2.133-6.933 6.133v4.533z"></path>
</symbol>
<symbol id="icon-frame" viewBox="0 0 32 32">
<path d="M23.305 25.604c-6.392 5.094-15.328 3.684-20.061-2.158-4.568-5.64-4.283-13.777 0.673-18.926 5.121-5.321 13.171-6.031 19.007-1.666 2.091 1.563 3.652 3.552 4.669 5.96 1.023 2.421 1.334 4.941 0.979 7.539-0.354 2.586-1.386 4.891-3.065 7.042 0.136 0.089 0.281 0.153 0.385 0.257 1.846 1.838 3.685 3.683 5.531 5.521 0.438 0.436 0.655 0.943 0.526 1.554-0.258 1.217-1.706 1.686-2.635 0.851-0.436-0.391-0.836-0.821-1.25-1.235-1.516-1.515-3.032-3.032-4.548-4.547-0.063-0.060-0.129-0.116-0.211-0.192zM25.525 14.378c0.016-6.176-4.97-11.168-11.159-11.178-6.173-0.009-11.155 4.944-11.181 11.116-0.027 6.191 4.949 11.198 11.158 11.226 6.148 0.029 11.167-4.983 11.183-11.165z"></path>
</symbol>
<symbol id="icon-heart" viewBox="0 0 32 32">
<path d="M16 30.22c-0.456 0-0.895-0.165-1.237-0.465-1.293-1.13-2.539-2.193-3.639-3.13l-0.006-0.005c-3.224-2.747-6.008-5.12-7.945-7.457-2.165-2.613-3.174-5.090-3.174-7.796 0-2.629 0.902-5.055 2.539-6.831 1.657-1.797 3.929-2.786 6.401-2.786 1.847 0 3.539 0.584 5.028 1.736 0.751 0.581 1.433 1.293 2.033 2.123 0.6-0.83 1.281-1.541 2.033-2.123 1.489-1.152 3.181-1.736 5.028-1.736 2.471 0 4.744 0.99 6.401 2.786 1.637 1.776 2.538 4.201 2.538 6.831 0 2.706-1.008 5.184-3.174 7.796-1.937 2.337-4.721 4.71-7.944 7.457-1.102 0.939-2.35 2.002-3.646 3.136-0.342 0.299-0.781 0.464-1.237 0.464zM8.939 3.624c-1.942 0-3.725 0.775-5.023 2.182-1.317 1.428-2.042 3.403-2.042 5.56 0 2.276 0.846 4.312 2.743 6.6 1.833 2.212 4.56 4.536 7.717 7.227l0.006 0.005c1.104 0.941 2.355 2.007 3.657 3.146 1.31-1.141 2.563-2.209 3.669-3.151 3.157-2.691 5.884-5.014 7.717-7.226 1.896-2.289 2.742-4.324 2.742-6.6 0-2.157-0.725-4.132-2.042-5.56-1.297-1.407-3.081-2.182-5.023-2.182-1.422 0-2.728 0.452-3.881 1.344-1.028 0.795-1.744 1.8-2.163 2.503-0.216 0.362-0.596 0.577-1.016 0.577s-0.801-0.216-1.016-0.577c-0.419-0.703-1.135-1.708-2.163-2.503-1.153-0.892-2.459-1.344-3.881-1.344z"></path>
</symbol>
<symbol id="icon-instagram" viewBox="0 0 32 32">
<path d="M16 2.933c4.267 0 4.8 0 6.533 0.133 4.4 0.133 6.4 2.267 6.533 6.533 0.133 1.733 0.133 2.133 0.133 6.4s0 4.8-0.133 6.4c-0.133 4.267-2.267 6.4-6.533 6.533-1.733 0.133-2.133 0.133-6.533 0.133-4.267 0-4.8 0-6.4-0.133-4.4-0.133-6.4-2.267-6.533-6.533-0.133-1.733-0.133-2.133-0.133-6.4s0-4.8 0.133-6.4c0.133-4.267 2.267-6.4 6.533-6.533 1.6-0.133 2.133-0.133 6.4-0.133zM16 0c-4.4 0-4.933 0-6.533 0.133-5.867 0.267-9.067 3.467-9.333 9.333-0.133 1.6-0.133 2.133-0.133 6.533s0 4.933 0.133 6.533c0.267 5.867 3.467 9.067 9.333 9.333 1.6 0.133 2.133 0.133 6.533 0.133s4.933 0 6.533-0.133c5.867-0.267 9.067-3.467 9.333-9.333 0.133-1.6 0.133-2.133 0.133-6.533s0-4.933-0.133-6.533c-0.267-5.867-3.467-9.067-9.333-9.333-1.6-0.133-2.133-0.133-6.533-0.133zM16 7.733c-4.533 0-8.267 3.733-8.267 8.267s3.733 8.267 8.267 8.267c4.533 0 8.267-3.733 8.267-8.267s-3.733-8.267-8.267-8.267zM16 21.333c-2.933 0-5.333-2.4-5.333-5.333s2.4-5.333 5.333-5.333c2.933 0 5.333 2.4 5.333 5.333s-2.4 5.333-5.333 5.333zM24.533 5.6c-1.067 0-1.867 0.8-1.867 1.867s0.8 1.867 1.867 1.867c1.067 0 1.867-0.8 1.867-1.867s-0.8-1.867-1.867-1.867z"></path>
</symbol>
<symbol id="icon-linkedin" viewBox="0 0 32 32">
<path d="M6.667 3.333c0 1.867-1.467 3.333-3.333 3.333s-3.333-1.467-3.333-3.333c0-1.867 1.467-3.333 3.333-3.333s3.333 1.467 3.333 3.333zM6.667 9.333h-6.667v21.333h6.667v-21.333zM17.333 9.333h-6.667v21.333h6.667v-11.2c0-6.267 8-6.8 8 0v11.2h6.667v-13.467c0-10.533-11.867-10.133-14.667-4.933v-2.933z"></path>
</symbol>
<symbol id="icon-location" viewBox="0 0 32 32">
<path stroke-linejoin="round" stroke-linecap="round" stroke-miterlimit="4" stroke-width="2.4" d="M19.347 14.281c0-1.842-1.492-3.334-3.334-3.334-1.84 0-3.333 1.492-3.333 3.334 0 1.84 1.492 3.333 3.333 3.333 1.842 0 3.334-1.492 3.334-3.333z"></path>
<path stroke-linejoin="round" stroke-linecap="round" stroke-miterlimit="4" stroke-width="2.4" d="M15.999 28c-3.864 0-9.999-6.722-9.999-13.868 0-5.595 4.476-10.132 9.999-10.132s10.001 4.537 10.001 10.132c0 7.147-6.135 13.868-10.001 13.868z"></path>
</symbol>
<symbol id="icon-logout" viewBox="0 0 32 32">
<path stroke-linejoin="round" stroke-linecap="round" stroke-miterlimit="4" stroke-width="2.6667" d="M30.507 16.179h-17.838"></path>
<path stroke-linejoin="round" stroke-linecap="round" stroke-miterlimit="4" stroke-width="2.6667" d="M26.171 11.859l4.338 4.32-4.338 4.32"></path>
<path stroke-linejoin="round" stroke-linecap="round" stroke-miterlimit="4" stroke-width="2.6667" d="M22.461 9.526c-0.489-5.304-2.474-7.23-10.37-7.23-10.52 0-10.52 3.422-10.52 13.704s0 13.704 10.52 13.704c7.896 0 9.882-1.926 10.37-7.23"></path>
</symbol>
<symbol id="icon-mail" viewBox="0 0 32 32">
<path stroke-linejoin="round" stroke-linecap="round" stroke-miterlimit="4" stroke-width="2.4" d="M23.393 12.025c0 0-4.28 5.137-7.411 5.137-3.129 0-7.457-5.137-7.457-5.137"></path>
<path stroke-linejoin="round" stroke-linecap="round" stroke-miterlimit="4" stroke-width="2.4" d="M3.269 15.958c0-9.117 3.175-12.156 12.698-12.156s12.698 3.038 12.698 12.156c0 9.116-3.175 12.156-12.698 12.156s-12.698-3.040-12.698-12.156z"></path>
</symbol>
<symbol id="icon-mastercard" viewBox="0 0 32 32">
<path fill="#d9222a" style="fill: var(--color2, #d9222a)" d="M18.518 16c0 4.23-3.429 7.659-7.659 7.659s-7.659-3.429-7.659-7.659c0-4.23 3.429-7.659 7.659-7.659s7.659 3.429 7.659 7.659z"></path>
<path fill="#ee9f2d" style="fill: var(--color3, #ee9f2d)" d="M21.141 8.341c-1.979 0-3.782 0.751-5.141 1.983-0.277 0.251-0.535 0.522-0.773 0.81h1.547c0.212 0.257 0.406 0.528 0.584 0.811h-2.715c-0.163 0.26-0.31 0.531-0.441 0.811h3.597c0.123 0.263 0.231 0.533 0.324 0.811h-4.246c-0.089 0.264-0.163 0.535-0.223 0.811h4.691c0.113 0.523 0.172 1.065 0.172 1.622 0 0.851-0.139 1.669-0.395 2.433h-4.246c0.093 0.278 0.201 0.548 0.324 0.811h3.597c-0.131 0.28-0.279 0.551-0.441 0.811h-2.715c0.177 0.283 0.372 0.554 0.584 0.811h1.547c-0.238 0.289-0.496 0.56-0.774 0.811 1.359 1.232 3.162 1.982 5.141 1.982 4.23 0 7.659-3.429 7.659-7.659s-3.429-7.659-7.659-7.659z"></path>
<path fill="#000" style="fill: var(--color4, #000)" d="M27.779 20.269c0-0.137 0.111-0.247 0.247-0.247s0.247 0.111 0.247 0.247c0 0.137-0.111 0.247-0.247 0.247s-0.247-0.111-0.247-0.247v0 0zM28.026 20.457c0.104 0 0.188-0.084 0.188-0.188s-0.084-0.188-0.188-0.188c-0.104 0-0.188 0.084-0.188 0.188s0.084 0.188 0.188 0.188v0 0zM27.993 20.378h-0.051v-0.217h0.092c0.019 0 0.039 0 0.056 0.011 0.018 0.012 0.028 0.033 0.028 0.055 0 0.024-0.014 0.047-0.038 0.056l0.040 0.096h-0.056l-0.033-0.086h-0.037v0.086h-0zM27.993 20.255h0.028c0.011 0 0.022 0.001 0.031-0.004 0.008-0.005 0.013-0.015 0.013-0.025 0-0.008-0.005-0.018-0.012-0.022-0.009-0.006-0.023-0.004-0.032-0.004h-0.027v0.056z"></path>
<path fill="#000" style="fill: var(--color4, #000)" d="M9.070 16.839c-0.087-0.010-0.126-0.013-0.186-0.013-0.471 0-0.71 0.162-0.71 0.481 0 0.197 0.116 0.322 0.298 0.322 0.339 0 0.583-0.322 0.597-0.79v0 0zM9.675 18.246h-0.689l0.016-0.328c-0.21 0.259-0.491 0.382-0.871 0.382-0.451 0-0.76-0.352-0.76-0.863 0-0.769 0.537-1.218 1.46-1.218 0.094 0 0.215 0.009 0.339 0.024 0.026-0.104 0.033-0.149 0.033-0.205 0-0.209-0.145-0.287-0.533-0.287-0.407-0.005-0.742 0.097-0.88 0.142 0.009-0.052 0.115-0.711 0.115-0.711 0.414-0.121 0.688-0.167 0.995-0.167 0.714 0 1.092 0.321 1.091 0.926 0.001 0.162-0.025 0.363-0.067 0.626-0.072 0.458-0.227 1.439-0.248 1.678v0 0z"></path>
<path fill="#000" style="fill: var(--color4, #000)" d="M7.023 18.246h-0.831l0.476-2.986-1.063 2.986h-0.567l-0.070-2.969-0.501 2.969h-0.778l0.65-3.885h1.196l0.073 2.175 0.729-2.175h1.33l-0.643 3.885z"></path>
<path fill="#000" style="fill: var(--color4, #000)" d="M22.169 16.839c-0.087-0.010-0.125-0.013-0.185-0.013-0.471 0-0.71 0.162-0.71 0.481 0 0.197 0.116 0.322 0.298 0.322 0.339 0 0.583-0.322 0.597-0.79v0 0zM22.774 18.246h-0.689l0.016-0.328c-0.21 0.259-0.491 0.382-0.871 0.382-0.451 0-0.759-0.352-0.759-0.863 0-0.769 0.537-1.218 1.46-1.218 0.094 0 0.215 0.009 0.338 0.024 0.026-0.104 0.033-0.149 0.033-0.205 0-0.209-0.145-0.287-0.533-0.287-0.407-0.005-0.742 0.097-0.88 0.142 0.009-0.052 0.116-0.711 0.116-0.711 0.414-0.121 0.687-0.167 0.995-0.167 0.714 0 1.092 0.321 1.092 0.926 0.001 0.162-0.025 0.363-0.067 0.626-0.072 0.458-0.227 1.439-0.248 1.678v0 0z"></path>
<path fill="#000" style="fill: var(--color4, #000)" d="M13.37 18.198c-0.228 0.072-0.405 0.102-0.597 0.102-0.425 0-0.657-0.244-0.657-0.694-0.006-0.14 0.061-0.507 0.114-0.842 0.048-0.295 0.361-2.156 0.361-2.156h0.826l-0.097 0.478h0.499l-0.113 0.759h-0.501c-0.096 0.601-0.233 1.349-0.234 1.449 0 0.163 0.087 0.234 0.285 0.234 0.095 0 0.168-0.010 0.224-0.030l-0.11 0.7z"></path>
<path fill="#000" style="fill: var(--color4, #000)" d="M15.904 18.173c-0.284 0.087-0.558 0.129-0.848 0.128-0.925-0.001-1.407-0.484-1.407-1.409 0-1.080 0.614-1.875 1.446-1.875 0.681 0 1.117 0.445 1.117 1.143 0 0.232-0.030 0.458-0.102 0.777h-1.646c-0.056 0.458 0.238 0.649 0.718 0.649 0.296 0 0.563-0.061 0.859-0.199l-0.137 0.786zM15.44 16.3c0.005-0.066 0.088-0.564-0.385-0.564-0.263 0-0.452 0.201-0.528 0.564h0.913z"></path>
<path fill="#000" style="fill: var(--color4, #000)" d="M10.174 16.086c0 0.4 0.194 0.675 0.633 0.882 0.337 0.158 0.389 0.205 0.389 0.349 0 0.197-0.148 0.286-0.477 0.286-0.248 0-0.479-0.039-0.745-0.125 0 0-0.109 0.696-0.114 0.73 0.189 0.041 0.358 0.079 0.865 0.093 0.877 0 1.283-0.334 1.283-1.056 0-0.434-0.17-0.689-0.586-0.88-0.349-0.16-0.389-0.196-0.389-0.343 0-0.171 0.138-0.258 0.407-0.258 0.163 0 0.386 0.017 0.597 0.047l0.118-0.733c-0.215-0.034-0.542-0.062-0.732-0.062-0.93 0-1.252 0.486-1.249 1.069z"></path>
<path fill="#000" style="fill: var(--color4, #000)" d="M19.948 15.099c0.231 0 0.446 0.061 0.743 0.21l0.136-0.843c-0.122-0.048-0.551-0.329-0.914-0.329-0.556 0-1.027 0.276-1.358 0.732-0.483-0.16-0.681 0.163-0.924 0.485l-0.216 0.050c0.016-0.106 0.031-0.211 0.026-0.318h-0.764c-0.104 0.978-0.289 1.968-0.434 2.947l-0.038 0.212h0.832c0.139-0.902 0.215-1.48 0.261-1.871l0.313-0.174c0.047-0.174 0.193-0.233 0.487-0.226-0.038 0.206-0.059 0.423-0.059 0.648 0 1.034 0.558 1.677 1.453 1.677 0.231 0 0.428-0.030 0.735-0.113l0.146-0.886c-0.276 0.136-0.502 0.2-0.706 0.2-0.483 0-0.776-0.357-0.776-0.947 0-0.855 0.435-1.455 1.056-1.455z"></path>
<path fill="#fff" style="fill: var(--color5, #fff)" d="M7.262 18.016h-0.832l0.477-2.986-1.063 2.986h-0.567l-0.070-2.969-0.501 2.969h-0.778l0.65-3.884h1.196l0.034 2.405 0.807-2.405h1.291l-0.643 3.884z"></path>
<path fill="#000" style="fill: var(--color4, #000)" d="M26.988 14.361l-0.184 1.123c-0.227-0.299-0.472-0.516-0.794-0.516-0.42 0-0.801 0.318-1.051 0.786-0.348-0.072-0.708-0.195-0.708-0.195l-0 0.003c0.028-0.262 0.039-0.421 0.037-0.476h-0.764c-0.104 0.978-0.289 1.968-0.433 2.947l-0.038 0.212h0.832c0.112-0.729 0.198-1.335 0.262-1.816 0.284-0.257 0.426-0.481 0.713-0.466-0.127 0.307-0.202 0.662-0.202 1.025 0 0.79 0.4 1.311 1.004 1.311 0.305 0 0.538-0.105 0.767-0.349l-0.039 0.294h0.787l0.633-3.884-0.82-0zM25.948 17.516c-0.283 0-0.426-0.209-0.426-0.623 0-0.621 0.268-1.061 0.645-1.061 0.286 0 0.44 0.218 0.44 0.619 0 0.626-0.272 1.065-0.659 1.065v0 0z"></path>
<path fill="#fff" style="fill: var(--color5, #fff)" d="M9.31 16.608c-0.087-0.010-0.126-0.013-0.185-0.013-0.471 0-0.71 0.162-0.71 0.481 0 0.196 0.116 0.322 0.298 0.322 0.339-0 0.583-0.323 0.597-0.79v0 0zM9.914 18.016h-0.689l0.016-0.327c-0.21 0.258-0.491 0.382-0.871 0.382-0.451 0-0.76-0.352-0.76-0.863 0-0.769 0.537-1.218 1.46-1.218 0.094 0 0.215 0.009 0.339 0.024 0.026-0.104 0.033-0.149 0.033-0.205 0-0.209-0.145-0.287-0.533-0.287-0.407-0.005-0.742 0.097-0.88 0.142 0.009-0.052 0.115-0.71 0.115-0.71 0.414-0.122 0.688-0.168 0.995-0.168 0.714 0 1.092 0.321 1.092 0.926 0.001 0.163-0.026 0.363-0.068 0.626-0.072 0.458-0.227 1.439-0.248 1.677v0 0z"></path>
<path fill="#fff" style="fill: var(--color5, #fff)" d="M21.066 14.236l-0.136 0.843c-0.297-0.149-0.512-0.21-0.743-0.21-0.621 0-1.056 0.6-1.056 1.455 0 0.59 0.293 0.946 0.776 0.946 0.205 0 0.431-0.064 0.706-0.199l-0.146 0.885c-0.307 0.084-0.504 0.114-0.735 0.114-0.895 0-1.453-0.644-1.453-1.677 0-1.389 0.77-2.359 1.872-2.359 0.363 0 0.792 0.154 0.914 0.202z"></path>
<path fill="#fff" style="fill: var(--color5, #fff)" d="M22.408 16.608c-0.087-0.010-0.126-0.013-0.185-0.013-0.471 0-0.71 0.162-0.71 0.481 0 0.196 0.116 0.322 0.298 0.322 0.339-0 0.583-0.323 0.597-0.79v0 0zM23.013 18.016h-0.689l0.016-0.327c-0.21 0.258-0.491 0.382-0.871 0.382-0.451 0-0.76-0.352-0.76-0.863 0-0.769 0.537-1.218 1.46-1.218 0.094 0 0.215 0.009 0.339 0.024 0.026-0.104 0.032-0.149 0.032-0.205 0-0.209-0.145-0.287-0.533-0.287-0.407-0.005-0.742 0.097-0.88 0.142 0.009-0.052 0.115-0.71 0.115-0.71 0.414-0.122 0.688-0.168 0.995-0.168 0.714 0 1.092 0.321 1.092 0.926 0.001 0.163-0.025 0.363-0.067 0.626-0.072 0.458-0.227 1.439-0.248 1.677v0 0z"></path>
<path fill="#fff" style="fill: var(--color5, #fff)" d="M13.61 17.968c-0.228 0.072-0.405 0.103-0.597 0.103-0.425 0-0.657-0.244-0.657-0.694-0.006-0.14 0.061-0.507 0.114-0.842 0.048-0.296 0.36-2.156 0.36-2.156h0.826l-0.096 0.478h0.424l-0.113 0.759h-0.426c-0.096 0.601-0.233 1.349-0.235 1.449 0 0.163 0.087 0.234 0.285 0.234 0.095 0 0.168-0.009 0.224-0.029l-0.11 0.699z"></path>
<path fill="#fff" style="fill: var(--color5, #fff)" d="M16.144 17.943c-0.284 0.087-0.558 0.128-0.848 0.128-0.925-0.001-1.407-0.484-1.407-1.409 0-1.080 0.614-1.875 1.446-1.875 0.681 0 1.117 0.445 1.117 1.143 0 0.232-0.030 0.458-0.102 0.777h-1.646c-0.056 0.458 0.238 0.649 0.718 0.649 0.296 0 0.563-0.061 0.859-0.2l-0.137 0.786zM15.679 16.069c0.005-0.066 0.088-0.564-0.385-0.564-0.263 0-0.451 0.201-0.528 0.564h0.913z"></path>
<path fill="#fff" style="fill: var(--color5, #fff)" d="M10.413 15.855c0 0.4 0.194 0.675 0.633 0.882 0.337 0.158 0.389 0.205 0.389 0.349 0 0.197-0.149 0.286-0.477 0.286-0.248 0-0.479-0.039-0.745-0.125 0 0-0.109 0.696-0.114 0.73 0.189 0.041 0.357 0.079 0.865 0.093 0.877 0 1.283-0.334 1.283-1.056 0-0.434-0.169-0.689-0.586-0.881-0.348-0.16-0.389-0.196-0.389-0.343 0-0.171 0.139-0.259 0.407-0.259 0.163 0 0.386 0.018 0.598 0.048l0.118-0.733c-0.215-0.034-0.542-0.061-0.732-0.061-0.93 0-1.252 0.486-1.249 1.069z"></path>
<path fill="#fff" style="fill: var(--color5, #fff)" d="M27.414 18.016h-0.787l0.039-0.294c-0.228 0.244-0.462 0.349-0.767 0.349-0.604 0-1.004-0.521-1.004-1.311 0-1.051 0.62-1.937 1.353-1.937 0.323 0 0.567 0.132 0.794 0.431l0.185-1.122h0.82l-0.633 3.884zM26.187 17.286c0.387 0 0.659-0.439 0.659-1.065 0-0.401-0.155-0.619-0.441-0.619-0.377 0-0.645 0.44-0.645 1.061 0 0.413 0.143 0.622 0.426 0.622v0 0z"></path>
<path fill="#fff" style="fill: var(--color5, #fff)" d="M23.762 14.857c-0.104 0.978-0.289 1.968-0.434 2.947l-0.038 0.212h0.832c0.297-1.932 0.369-2.309 0.836-2.262 0.074-0.395 0.213-0.742 0.316-0.916-0.348-0.073-0.543 0.124-0.797 0.498 0.020-0.162 0.057-0.319 0.050-0.479h-0.764z"></path>
<path fill="#fff" style="fill: var(--color5, #fff)" d="M16.917 14.857c-0.104 0.978-0.289 1.968-0.434 2.947l-0.038 0.212h0.832c0.297-1.932 0.369-2.309 0.835-2.262 0.075-0.395 0.213-0.742 0.316-0.916-0.348-0.073-0.543 0.124-0.797 0.498 0.020-0.162 0.057-0.319 0.050-0.479h-0.764z"></path>
<path fill="#fff" style="fill: var(--color5, #fff)" d="M27.779 17.768c0-0.137 0.111-0.247 0.247-0.247s0.247 0.11 0.247 0.247c0 0.136-0.111 0.247-0.247 0.247s-0.247-0.111-0.247-0.247v0 0zM28.026 17.956c0.104 0 0.188-0.084 0.188-0.188s-0.084-0.188-0.188-0.188c-0.104 0-0.188 0.084-0.188 0.188s0.084 0.188 0.188 0.188v0 0zM27.993 17.876h-0.051v-0.217h0.092c0.019 0 0.039 0 0.055 0.011 0.018 0.012 0.028 0.033 0.028 0.054 0 0.025-0.014 0.047-0.038 0.056l0.040 0.095h-0.056l-0.033-0.086h-0.037v0.086h0zM27.993 17.754h0.028c0.011 0 0.022 0.001 0.031-0.004s0.013-0.015 0.013-0.025c0-0.008-0.005-0.018-0.012-0.022-0.009-0.005-0.023-0.004-0.033-0.004h-0.027v0.055h0z"></path>
</symbol>
<symbol id="icon-paypal" viewBox="0 0 32 32">
<path fill="#fff" style="fill: var(--color5, #fff)" d="M29.744 5.952h-27.487c-1.244 0-2.256 0.99-2.256 2.206v15.684c0 1.216 1.012 2.206 2.256 2.206h27.487c1.244 0 2.256-0.99 2.256-2.206v-15.684c0-1.216-1.012-2.206-2.256-2.206z"></path>
<path fill="#003087" style="fill: var(--color6, #003087)" d="M6.966 12.713c-0.342-0.235-0.789-0.353-1.34-0.353h-2.134c-0.169 0-0.262 0.085-0.28 0.253l-0.867 5.441c-0.009 0.053 0.004 0.102 0.040 0.147s0.080 0.067 0.133 0.067h1.014c0.178 0 0.275-0.084 0.293-0.253l0.24-1.467c0.009-0.071 0.040-0.129 0.093-0.173s0.12-0.073 0.2-0.087c0.080-0.013 0.155-0.020 0.227-0.020s0.155 0.004 0.253 0.013c0.098 0.009 0.16 0.013 0.187 0.013 0.765 0 1.365-0.215 1.8-0.647s0.654-1.029 0.654-1.794c0-0.524-0.171-0.905-0.513-1.14zM5.866 14.347c-0.045 0.311-0.16 0.516-0.347 0.613s-0.453 0.147-0.8 0.147l-0.44 0.013 0.227-1.427c0.018-0.098 0.075-0.147 0.173-0.147h0.253c0.355 0 0.613 0.051 0.773 0.153s0.213 0.318 0.16 0.647z"></path>
<path fill="#009cde" style="fill: var(--color7, #009cde)" d="M29.484 12.36h-0.987c-0.098 0-0.156 0.049-0.173 0.147l-0.867 5.548-0.013 0.027c0 0.045 0.018 0.087 0.053 0.127s0.080 0.060 0.133 0.060h0.88c0.169 0 0.262-0.084 0.28-0.253l0.867-5.454v-0.013c-0-0.124-0.058-0.187-0.173-0.187z"></path>
<path fill="#003087" style="fill: var(--color6, #003087)" d="M17.562 14.507c0-0.044-0.018-0.087-0.053-0.127s-0.076-0.060-0.12-0.060h-1.027c-0.098 0-0.178 0.045-0.24 0.133l-1.414 2.080-0.587-2c-0.045-0.142-0.142-0.213-0.293-0.213h-1c-0.045 0-0.085 0.020-0.12 0.060s-0.053 0.082-0.053 0.127c0 0.018 0.087 0.28 0.26 0.787s0.36 1.054 0.56 1.64c0.2 0.587 0.304 0.898 0.313 0.933-0.729 0.996-1.094 1.529-1.094 1.6 0 0.116 0.058 0.173 0.173 0.173h1.027c0.098 0 0.178-0.044 0.24-0.133l3.401-4.908c0.018-0.018 0.027-0.049 0.027-0.093z"></path>
<path fill="#009cde" style="fill: var(--color7, #009cde)" d="M27.123 14.32h-1.014c-0.125 0-0.2 0.147-0.227 0.44-0.231-0.355-0.653-0.534-1.267-0.534-0.64 0-1.185 0.24-1.634 0.72s-0.673 1.045-0.673 1.694c0 0.525 0.153 0.942 0.46 1.253s0.718 0.467 1.234 0.467c0.258 0 0.52-0.053 0.787-0.16s0.476-0.249 0.627-0.427c0 0.009-0.009 0.049-0.027 0.12s-0.027 0.125-0.027 0.16c0 0.142 0.058 0.213 0.173 0.213h0.92c0.169 0 0.267-0.084 0.293-0.253l0.547-3.481c0.009-0.053-0.005-0.102-0.040-0.147s-0.080-0.067-0.133-0.067zM25.383 16.947c-0.227 0.222-0.5 0.333-0.82 0.333-0.258 0-0.467-0.071-0.627-0.213s-0.24-0.338-0.24-0.587c0-0.329 0.111-0.607 0.333-0.833s0.498-0.34 0.827-0.34c0.249 0 0.455 0.073 0.62 0.22s0.247 0.349 0.247 0.607c-0 0.32-0.113 0.591-0.34 0.813z"></path>
<path fill="#003087" style="fill: var(--color6, #003087)" d="M11.974 14.32h-1.014c-0.125 0-0.2 0.147-0.227 0.44-0.24-0.355-0.662-0.534-1.267-0.534-0.64 0-1.185 0.24-1.634 0.72s-0.673 1.045-0.673 1.694c0 0.525 0.153 0.942 0.46 1.253s0.718 0.467 1.234 0.467c0.249 0 0.507-0.053 0.773-0.16s0.48-0.249 0.64-0.427c-0.036 0.107-0.053 0.2-0.053 0.28 0 0.142 0.058 0.213 0.173 0.213h0.92c0.169 0 0.267-0.084 0.293-0.253l0.547-3.481c0.009-0.053-0.005-0.102-0.040-0.147s-0.080-0.067-0.133-0.067zM10.234 16.954c-0.227 0.218-0.505 0.327-0.833 0.327-0.258 0-0.465-0.071-0.62-0.213s-0.233-0.338-0.233-0.587c0-0.329 0.111-0.607 0.333-0.833s0.498-0.34 0.827-0.34c0.249 0 0.456 0.073 0.62 0.22s0.247 0.349 0.247 0.607c0 0.329-0.113 0.602-0.34 0.82z"></path>
<path fill="#009cde" style="fill: var(--color7, #009cde)" d="M22.116 12.713c-0.342-0.235-0.789-0.353-1.34-0.353h-2.12c-0.178 0-0.276 0.085-0.293 0.253l-0.867 5.441c-0.009 0.053 0.004 0.102 0.040 0.147s0.080 0.067 0.133 0.067h1.093c0.107 0 0.178-0.058 0.213-0.173l0.24-1.547c0.009-0.071 0.040-0.129 0.093-0.173s0.12-0.073 0.2-0.087c0.080-0.013 0.155-0.020 0.227-0.020s0.155 0.004 0.253 0.013c0.098 0.009 0.16 0.013 0.187 0.013 0.765 0 1.365-0.215 1.8-0.647s0.653-1.029 0.653-1.794c0-0.524-0.171-0.905-0.513-1.14zM20.749 14.907c-0.196 0.133-0.489 0.2-0.88 0.2l-0.427 0.013 0.227-1.427c0.018-0.098 0.075-0.147 0.173-0.147h0.24c0.196 0 0.351 0.009 0.467 0.027s0.227 0.073 0.333 0.167c0.107 0.093 0.16 0.229 0.16 0.407 0 0.373-0.098 0.627-0.293 0.76z"></path>
</symbol>
<symbol id="icon-phone" viewBox="0 0 32 32">
<path stroke-linejoin="round" stroke-linecap="round" stroke-miterlimit="4" stroke-width="2.4" d="M19.137 3.667c4.935 0.548 8.833 4.441 9.388 9.376"></path>
<path stroke-linejoin="round" stroke-linecap="round" stroke-miterlimit="4" stroke-width="2.4" d="M19.137 8.391c2.361 0.459 4.207 2.305 4.667 4.667"></path>
<path stroke-linejoin="round" stroke-linecap="round" stroke-miterlimit="4" stroke-width="2.4" d="M10.267 21.732c-9.197-9.198-7.889-13.41-6.92-14.768 0.125-0.219 3.195-4.815 6.485-2.119 8.168 6.727-2.173 5.776 4.686 12.636 6.86 6.859 5.908-3.482 12.635 4.685 2.696 3.292-1.9 6.362-2.117 6.485-1.357 0.971-5.571 2.279-14.77-6.92z"></path>
</symbol>
<symbol id="icon-shopping" viewBox="0 0 32 32">
<path d="M22.87 26.999h-9.685c-4.135 0-7.499-3.364-7.499-7.499v-7.686c0-3.844-1.916-7.401-5.125-9.517-0.576-0.38-0.735-1.155-0.355-1.731s1.155-0.736 1.731-0.355c1.832 1.208 3.318 2.801 4.381 4.635 0.23 0.257 2.081 2.22 5.117 2.22h14.392c3.926-0.073 7 3.867 5.973 7.657l-1.657 6.603c-0.838 3.341-3.829 5.674-7.273 5.674zM7.871 8.859c0.208 0.96 0.315 1.95 0.315 2.956v7.686c0 2.756 2.243 4.999 4.999 4.999h9.685c2.296 0 4.29-1.556 4.849-3.783l1.657-6.603c0.61-2.252-1.216-4.593-3.549-4.549h-14.392c-1.373 0-2.568-0.296-3.565-0.706zM12.56 30.436c0-0.863-0.699-1.562-1.562-1.562-2.073 0.083-2.071 3.043 0 3.124 0.863 0 1.562-0.7 1.562-1.562zM24.996 30.436c0-0.863-0.699-1.562-1.562-1.562-2.073 0.083-2.071 3.043 0 3.124 0.863 0 1.562-0.7 1.562-1.562zM27.077 13.314c0-0.69-0.56-1.25-1.25-1.25h-13.892c-1.658 0.066-1.657 2.434 0 2.5h13.892c0.69 0 1.25-0.56 1.25-1.25z"></path>
</symbol>
<symbol id="icon-twitter" viewBox="0 0 32 32">
<path d="M10.064 29.007c12.076 0 18.68-10.005 18.68-18.68 0-0.284-0.006-0.567-0.019-0.849 1.282-0.927 2.396-2.083 3.275-3.399-1.176 0.523-2.442 0.875-3.77 1.033 1.355-0.813 2.396-2.099 2.887-3.632-1.269 0.752-2.674 1.299-4.169 1.594-1.199-1.276-2.905-2.074-4.793-2.074-3.626 0-6.567 2.94-6.567 6.565 0 0.515 0.058 1.016 0.17 1.497-5.456-0.274-10.294-2.887-13.532-6.859-0.565 0.97-0.889 2.097-0.889 3.3 0 2.278 1.159 4.288 2.922 5.465-1.077-0.033-2.089-0.329-2.974-0.821-0.001 0.027-0.001 0.055-0.001 0.084 0 3.18 2.263 5.835 5.267 6.436-0.551 0.15-1.132 0.231-1.731 0.231-0.423 0-0.834-0.042-1.234-0.118 0.836 2.608 3.26 4.506 6.133 4.56-2.247 1.761-5.078 2.81-8.154 2.81-0.53 0-1.052-0.030-1.566-0.091 2.905 1.862 6.355 2.949 10.064 2.949z"></path>
</symbol>
<symbol id="icon-visa" viewBox="0 0 32 32">
<path fill="#0e4595" style="fill: var(--color8, #0e4595)" d="M12.029 20.050l1.369-8.031h2.189l-1.37 8.031h-2.188zM22.126 12.192c-0.434-0.163-1.113-0.337-1.962-0.337-2.163 0-3.687 1.089-3.7 2.65-0.012 1.154 1.088 1.798 1.918 2.182 0.852 0.394 1.139 0.645 1.134 0.996-0.005 0.538-0.68 0.784-1.31 0.784-0.876 0-1.342-0.122-2.061-0.421l-0.282-0.128-0.307 1.798c0.511 0.224 1.457 0.418 2.438 0.428 2.301 0 3.795-1.077 3.812-2.744 0.008-0.914-0.575-1.609-1.838-2.182-0.765-0.372-1.234-0.619-1.229-0.996 0-0.334 0.397-0.691 1.254-0.691 0.716-0.011 1.234 0.145 1.638 0.308l0.196 0.093 0.297-1.741zM27.759 12.019h-1.692c-0.524 0-0.916 0.143-1.146 0.666l-3.251 7.36h2.299s0.376-0.99 0.461-1.207c0.251 0 2.484 0.003 2.804 0.003 0.065 0.281 0.266 1.203 0.266 1.203h2.031l-1.772-8.026zM25.075 17.205c0.181-0.463 0.872-2.245 0.872-2.245-0.013 0.021 0.18-0.465 0.29-0.767l0.148 0.692s0.419 1.917 0.507 2.319l-1.817 0zM10.17 12.019l-2.143 5.477-0.228-1.113c-0.399-1.283-1.642-2.673-3.032-3.369l1.96 7.024 2.316-0.003 3.446-8.016-2.319-0z"></path>
<path fill="#f2ae14" style="fill: var(--color9, #f2ae14)" d="M6.027 12.019h-3.53l-0.028 0.167c2.746 0.665 4.563 2.271 5.318 4.202l-0.768-3.691c-0.132-0.509-0.517-0.66-0.992-0.678z"></path>
</symbol>
<symbol id="icon-youtube" viewBox="0 0 32 32">
<path d="M25.542 11.671l0.005 0.001c0 0-0.001-0-0.002-0.001s-0.002-0-0.002-0.001zM7.283 11.548c4.367-0.271 12.503-0.271 16.871 0l0.001 0.013c0.105 1.066 0.148 2.488 0.148 4.471 0 1.959-0.041 3.381-0.145 4.456-4.46 0.177-12.417 0.177-16.878 0-0.104-1.064-0.146-2.482-0.146-4.456 0-1.984 0.042-3.405 0.148-4.471l0.001-0.013zM25.671 20.398c0 0-0.003 0.001-0.009 0.002l0.009-0.002zM5.891 20.392l0.005 0.001c-0.003-0.001-0.005-0.001-0.005-0.001zM0 16.032c0 8.121 0.655 11.134 5.763 11.527 4.716 0.262 15.195 0.262 19.91 0 5.109-0.262 5.764-3.406 5.764-11.527s-0.655-11.134-5.764-11.527c-4.716-0.393-15.195-0.393-19.91 0-5.109 0.393-5.763 3.406-5.763 11.527zM5.891 11.673c-0-0 0.002-0 0.005-0.001l-0.005 0.001zM16.475 18.929c-2.153 1.077-4.686-0.489-4.686-2.896s2.533-3.973 4.686-2.896c2.387 1.193 2.387 4.599 0 5.793z"></path>
</symbol>
</defs>
</svg>
