<svg aria-hidden="true" style="position: absolute; width: 0; height: 0; overflow: hidden;" version="1.1" xmlns="http://www.w3.org/2000/svg" xmlns:xlink="http://www.w3.org/1999/xlink">
<defs>
<symbol id="icon-facebook1" viewBox="0 0 16 32">
<path fill="#46a358" style="fill: var(--color1, #46a358)" opacity="0.6" d="M4 10.667h-4v5.333h4v16h6.667v-16h4.8l0.533-5.333h-5.333v-2.267c0-1.2 0.267-1.733 1.467-1.733h3.867v-6.667h-5.067c-4.8 0-6.933 2.133-6.933 6.133v4.533z"></path>
</symbol>
<symbol id="icon-instagram1" viewBox="0 0 32 32">
<path fill="#46a358" style="fill: var(--color1, #46a358)" opacity="0.6" d="M16 2.933c4.267 0 4.8 0 6.533 0.133 4.4 0.133 6.4 2.267 6.533 6.533 0.133 1.733 0.133 2.133 0.133 6.4s0 4.8-0.133 6.4c-0.133 4.267-2.267 6.4-6.533 6.533-1.733 0.133-2.133 0.133-6.533 0.133-4.267 0-4.8 0-6.4-0.133-4.4-0.133-6.4-2.267-6.533-6.533-0.133-1.733-0.133-2.133-0.133-6.4s0-4.8 0.133-6.4c0.133-4.267 2.267-6.4 6.533-6.533 1.6-0.133 2.133-0.133 6.4-0.133zM16 0c-4.4 0-4.933 0-6.533 0.133-5.867 0.267-9.067 3.467-9.333 9.333-0.133 1.6-0.133 2.133-0.133 6.533s0 4.933 0.133 6.533c0.267 5.867 3.467 9.067 9.333 9.333 1.6 0.133 2.133 0.133 6.533 0.133s4.933 0 6.533-0.133c5.867-0.267 9.067-3.467 9.333-9.333 0.133-1.6 0.133-2.133 0.133-6.533s0-4.933-0.133-6.533c-0.267-5.867-3.467-9.067-9.333-9.333-1.6-0.133-2.133-0.133-6.533-0.133zM16 7.733c-4.533 0-8.267 3.733-8.267 8.267s3.733 8.267 8.267 8.267c4.533 0 8.267-3.733 8.267-8.267s-3.733-8.267-8.267-8.267zM16 21.333c-2.933 0-5.333-2.4-5.333-5.333s2.4-5.333 5.333-5.333c2.933 0 5.333 2.4 5.333 5.333s-2.4 5.333-5.333 5.333zM24.533 5.6c-1.067 0-1.867 0.8-1.867 1.867s0.8 1.867 1.867 1.867c1.067 0 1.867-0.8 1.867-1.867s-0.8-1.867-1.867-1.867z"></path>
</symbol>
<symbol id="icon-linkedin1" viewBox="0 0 32 32">
<path fill="#46a358" style="fill: var(--color1, #46a358)" opacity="0.6" d="M6.667 3.333c0 1.867-1.467 3.333-3.333 3.333s-3.333-1.467-3.333-3.333c0-1.867 1.467-3.333 3.333-3.333s3.333 1.467 3.333 3.333zM6.667 9.333h-6.667v21.333h6.667v-21.333zM17.333 9.333h-6.667v21.333h6.667v-11.2c0-6.267 8-6.8 8 0v11.2h6.667v-13.467c0-10.533-11.867-10.133-14.667-4.933v-2.933z"></path>
</symbol>
<symbol id="icon-twitter1" viewBox="0 0 39 32">
<path fill="#46a358" style="fill: var(--color1, #46a358)" opacity="0.6" d="M12.386 32.009c14.863 0 22.991-12.314 22.991-22.991 0-0.35-0.007-0.698-0.023-1.045 1.578-1.14 2.949-2.564 4.031-4.184-1.448 0.643-3.006 1.076-4.64 1.272 1.668-1 2.949-2.583 3.553-4.47-1.562 0.926-3.291 1.599-5.131 1.962-1.475-1.571-3.575-2.553-5.899-2.553-4.463 0-8.082 3.619-8.082 8.080 0 0.634 0.071 1.251 0.209 1.842-6.715-0.337-12.67-3.553-16.655-8.442-0.695 1.194-1.095 2.582-1.095 4.061 0 2.803 1.427 5.278 3.596 6.726-1.325-0.041-2.571-0.405-3.66-1.011-0.002 0.034-0.002 0.068-0.002 0.103 0 3.914 2.786 7.181 6.483 7.921-0.679 0.185-1.393 0.284-2.13 0.284-0.521 0-1.027-0.052-1.519-0.146 1.028 3.21 4.012 5.546 7.549 5.612-2.766 2.168-6.25 3.459-10.036 3.459-0.652 0-1.295-0.037-1.927-0.112 3.576 2.292 7.822 3.63 12.386 3.63z"></path>
</symbol>
<symbol id="icon-youtube1" viewBox="0 0 43 32">
<path fill="#46a358" style="fill: var(--color1, #46a358)" opacity="0.6" d="M34.664 10.126l0.006 0.002c0 0-0.001-0-0.003-0.001-0.001-0-0.002-0.001-0.003-0.001zM9.884 9.959c5.927-0.368 16.969-0.368 22.896 0l0.002 0.017c0.143 1.446 0.2 3.376 0.2 6.068 0 2.659-0.056 4.589-0.196 6.048-6.052 0.241-16.852 0.241-22.906 0-0.141-1.444-0.198-3.368-0.198-6.048 0-2.692 0.058-4.622 0.2-6.068l0.002-0.017zM34.839 21.968c0 0-0.004 0.001-0.012 0.003l0.012-0.003zM7.995 21.96l0.006 0.002c-0.004-0.001-0.006-0.002-0.006-0.002zM0 16.044c0 11.022 0.889 15.11 7.822 15.644 6.4 0.356 20.621 0.356 27.021 0 6.933-0.355 7.822-4.622 7.822-15.644s-0.889-15.11-7.822-15.644c-6.4-0.533-20.621-0.533-27.021 0-6.933 0.533-7.822 4.622-7.822 15.644zM7.995 10.127c-0-0 0.002-0.001 0.006-0.002l-0.006 0.002zM22.36 19.975c-2.922 1.461-6.36-0.664-6.36-3.931s3.438-5.392 6.36-3.931c3.239 1.62 3.239 6.242 0 7.861z"></path>
</symbol>
</defs>
</svg>
