<svg aria-hidden="true" style="position: absolute; width: 0; height: 0; overflow: hidden;" version="1.1" xmlns="http://www.w3.org/2000/svg" xmlns:xlink="http://www.w3.org/1999/xlink">
<defs>
<symbol id="icon-location" viewBox="0 0 32 32">
<path fill="none" stroke="#46a358" style="stroke: var(--color1, #46a358)" stroke-linejoin="round" stroke-linecap="round" stroke-miterlimit="4" stroke-width="2.4" d="M19.347 14.281c0-1.842-1.492-3.334-3.334-3.334-1.84 0-3.333 1.492-3.333 3.334 0 1.84 1.492 3.333 3.333 3.333 1.842 0 3.334-1.492 3.334-3.333z"></path>
<path fill="none" stroke="#46a358" style="stroke: var(--color1, #46a358)" stroke-linejoin="round" stroke-linecap="round" stroke-miterlimit="4" stroke-width="2.4" d="M15.999 28c-3.864 0-9.999-6.722-9.999-13.868 0-5.595 4.476-10.132 9.999-10.132s10.001 4.537 10.001 10.132c0 7.147-6.135 13.868-10.001 13.868z"></path>
</symbol>
<symbol id="icon-mail" viewBox="0 0 32 32">
<path fill="none" stroke="#46a358" style="stroke: var(--color1, #46a358)" stroke-linejoin="round" stroke-linecap="round" stroke-miterlimit="4" stroke-width="2.4" d="M23.393 12.025c0 0-4.28 5.137-7.411 5.137-3.129 0-7.457-5.137-7.457-5.137"></path>
<path fill="none" stroke="#46a358" style="stroke: var(--color1, #46a358)" stroke-linejoin="round" stroke-linecap="round" stroke-miterlimit="4" stroke-width="2.4" d="M3.269 15.958c0-9.117 3.175-12.156 12.698-12.156s12.698 3.038 12.698 12.156c0 9.116-3.175 12.156-12.698 12.156s-12.698-3.040-12.698-12.156z"></path>
</symbol>
<symbol id="icon-phone" viewBox="0 0 32 32">
<path fill="none" stroke="#46a358" style="stroke: var(--color1, #46a358)" stroke-linejoin="round" stroke-linecap="round" stroke-miterlimit="4" stroke-width="2.4" d="M19.137 3.667c4.935 0.548 8.833 4.441 9.388 9.376"></path>
<path fill="none" stroke="#46a358" style="stroke: var(--color1, #46a358)" stroke-linejoin="round" stroke-linecap="round" stroke-miterlimit="4" stroke-width="2.4" d="M19.137 8.391c2.361 0.459 4.207 2.305 4.667 4.667"></path>
<path fill="none" stroke="#46a358" style="stroke: var(--color1, #46a358)" stroke-linejoin="round" stroke-linecap="round" stroke-miterlimit="4" stroke-width="2.4" d="M10.267 21.732c-9.197-9.198-7.889-13.41-6.92-14.768 0.125-0.219 3.195-4.815 6.485-2.119 8.168 6.727-2.173 5.776 4.686 12.636 6.86 6.859 5.908-3.482 12.635 4.685 2.696 3.292-1.9 6.362-2.117 6.485-1.357 0.971-5.571 2.279-14.77-6.92z"></path>
</symbol>
<symbol id="icon-facebook" viewBox="0 0 32 32">
<path fill="none" stroke="#46a358" style="stroke: var(--color1, #46a358)" stroke-linejoin="miter" stroke-linecap="butt" stroke-miterlimit="4" stroke-width="1" d="M5 0.5h22c2.485 0 4.5 2.015 4.5 4.5v22c0 2.485-2.015 4.5-4.5 4.5h-22c-2.485 0-4.5-2.015-4.5-4.5v-22c0-2.485 2.015-4.5 4.5-4.5z"></path>
<path fill="#46a358" style="fill: var(--color1, #46a358)" opacity="0.6" d="M14 13.333h-2v2.667h2v8h3.333v-8h2.4l0.267-2.667h-2.667v-1.133c0-0.6 0.133-0.867 0.733-0.867h1.933v-3.333h-2.533c-2.4 0-3.467 1.067-3.467 3.067v2.267z"></path>
</symbol>
<symbol id="icon-instagram" viewBox="0 0 32 32">
<path fill="none" stroke="#46a358" style="stroke: var(--color1, #46a358)" stroke-linejoin="miter" stroke-linecap="butt" stroke-miterlimit="4" stroke-width="1" d="M5 0.5h22c2.485 0 4.5 2.015 4.5 4.5v22c0 2.485-2.015 4.5-4.5 4.5h-22c-2.485 0-4.5-2.015-4.5-4.5v-22c0-2.485 2.015-4.5 4.5-4.5z"></path>
<path fill="#46a358" style="fill: var(--color1, #46a358)" opacity="0.6" d="M16 9.467c2.133 0 2.4 0 3.267 0.067 2.2 0.067 3.2 1.133 3.267 3.267 0.067 0.867 0.067 1.067 0.067 3.2s0 2.4-0.067 3.2c-0.067 2.133-1.133 3.2-3.267 3.267-0.867 0.067-1.067 0.067-3.267 0.067-2.133 0-2.4 0-3.2-0.067-2.2-0.067-3.2-1.133-3.267-3.267-0.067-0.867-0.067-1.067-0.067-3.2s0-2.4 0.067-3.2c0.067-2.133 1.133-3.2 3.267-3.267 0.8-0.067 1.067-0.067 3.2-0.067zM16 8c-2.2 0-2.467 0-3.267 0.067-2.933 0.133-4.533 1.733-4.667 4.667-0.067 0.8-0.067 1.067-0.067 3.267s0 2.467 0.067 3.267c0.133 2.933 1.733 4.533 4.667 4.667 0.8 0.067 1.067 0.067 3.267 0.067s2.467 0 3.267-0.067c2.933-0.133 4.533-1.733 4.667-4.667 0.067-0.8 0.067-1.067 0.067-3.267s0-2.467-0.067-3.267c-0.133-2.933-1.733-4.533-4.667-4.667-0.8-0.067-1.067-0.067-3.267-0.067zM16 11.867c-2.267 0-4.133 1.867-4.133 4.133s1.867 4.133 4.133 4.133c2.267 0 4.133-1.867 4.133-4.133s-1.867-4.133-4.133-4.133zM16 18.667c-1.467 0-2.667-1.2-2.667-2.667s1.2-2.667 2.667-2.667c1.467 0 2.667 1.2 2.667 2.667s-1.2 2.667-2.667 2.667zM20.267 10.8c-0.533 0-0.933 0.4-0.933 0.933s0.4 0.933 0.933 0.933c0.533 0 0.933-0.4 0.933-0.933s-0.4-0.933-0.933-0.933z"></path>
</symbol>
<symbol id="icon-linkidin" viewBox="0 0 32 32">
<path fill="none" stroke="#46a358" style="stroke: var(--color1, #46a358)" stroke-linejoin="miter" stroke-linecap="butt" stroke-miterlimit="4" stroke-width="1" d="M5 0.5h22c2.485 0 4.5 2.015 4.5 4.5v22c0 2.485-2.015 4.5-4.5 4.5h-22c-2.485 0-4.5-2.015-4.5-4.5v-22c0-2.485 2.015-4.5 4.5-4.5z"></path>
<path fill="#46a358" style="fill: var(--color1, #46a358)" opacity="0.6" d="M11.333 9.667c0 0.933-0.733 1.667-1.667 1.667s-1.667-0.733-1.667-1.667c0-0.933 0.733-1.667 1.667-1.667s1.667 0.733 1.667 1.667zM11.333 12.667h-3.333v10.667h3.333v-10.667zM16.667 12.667h-3.333v10.667h3.333v-5.6c0-3.133 4-3.4 4 0v5.6h3.333v-6.733c0-5.267-5.933-5.067-7.333-2.467v-1.467z"></path>
</symbol>
<symbol id="icon-twitter" viewBox="0 0 32 32">
<path fill="none" stroke="#46a358" style="stroke: var(--color1, #46a358)" stroke-linejoin="miter" stroke-linecap="butt" stroke-miterlimit="4" stroke-width="1" d="M5 0.5h22c2.485 0 4.5 2.015 4.5 4.5v22c0 2.485-2.015 4.5-4.5 4.5h-22c-2.485 0-4.5-2.015-4.5-4.5v-22c0-2.485 2.015-4.5 4.5-4.5z"></path>
<path fill="#46a358" style="fill: var(--color1, #46a358)" opacity="0.6" d="M13.032 22.004c6.038 0 9.34-5.002 9.34-9.34 0-0.142-0.003-0.284-0.009-0.424 0.641-0.463 1.198-1.042 1.638-1.7-0.588 0.261-1.221 0.437-1.885 0.517 0.678-0.406 1.198-1.050 1.444-1.816-0.634 0.376-1.337 0.649-2.084 0.797-0.599-0.638-1.452-1.037-2.396-1.037-1.813 0-3.283 1.47-3.283 3.282 0 0.258 0.029 0.508 0.085 0.748-2.728-0.137-5.147-1.443-6.766-3.43-0.282 0.485-0.445 1.049-0.445 1.65 0 1.139 0.58 2.144 1.461 2.732-0.538-0.017-1.044-0.165-1.487-0.411-0.001 0.014-0.001 0.027-0.001 0.042 0 1.59 1.132 2.917 2.634 3.218-0.276 0.075-0.566 0.116-0.865 0.116-0.211 0-0.417-0.021-0.617-0.059 0.418 1.304 1.63 2.253 3.067 2.28-1.124 0.881-2.539 1.405-4.077 1.405-0.265 0-0.526-0.015-0.783-0.046 1.453 0.931 3.178 1.475 5.032 1.475z"></path>
</symbol>
<symbol id="icon-youtube" viewBox="0 0 32 32">
<path fill="none" stroke="#46a358" style="stroke: var(--color1, #46a358)" stroke-linejoin="miter" stroke-linecap="butt" stroke-miterlimit="4" stroke-width="1" d="M5 0.5h22c2.485 0 4.5 2.015 4.5 4.5v22c0 2.485-2.015 4.5-4.5 4.5h-22c-2.485 0-4.5-2.015-4.5-4.5v-22c0-2.485 2.015-4.5 4.5-4.5z"></path>
<path fill="#46a358" style="fill: var(--color1, #46a358)" opacity="0.6" d="M22.165 13.43l0.003 0.001c0 0-0-0-0.001-0s-0.001-0-0.001-0zM11.324 13.357c2.593-0.161 7.424-0.161 10.017 0l0.001 0.008c0.063 0.633 0.088 1.477 0.088 2.655 0 1.163-0.025 2.008-0.086 2.646-2.648 0.105-7.373 0.105-10.021 0-0.062-0.632-0.087-1.474-0.087-2.646 0-1.178 0.025-2.022 0.088-2.655l0.001-0.008zM22.242 18.611c0 0-0.002 0-0.005 0.001l0.005-0.001zM10.498 18.608l0.003 0.001c-0.002-0-0.003-0.001-0.003-0.001zM7 16.019c0 4.822 0.389 6.611 3.422 6.844 2.8 0.156 9.022 0.156 11.822 0 3.033-0.155 3.422-2.022 3.422-6.844s-0.389-6.611-3.422-6.844c-2.8-0.233-9.022-0.233-11.822 0-3.033 0.233-3.422 2.022-3.422 6.844zM10.498 13.431c0 0 0.001-0 0.003-0.001l-0.003 0.001zM16.782 17.739c-1.278 0.639-2.783-0.291-2.783-1.72s1.504-2.359 2.783-1.72c1.417 0.709 1.417 2.731 0 3.439z"></path>
</symbol>
</defs>
</svg>
