<svg aria-hidden="true" style="position: absolute; width: 0; height: 0; overflow: hidden;" version="1.1" xmlns="http://www.w3.org/2000/svg" xmlns:xlink="http://www.w3.org/1999/xlink">
<defs>
<symbol id="icon-arrow-l-white" viewBox="0 0 22 32">
<path fill="#fff" style="fill: var(--color1, #fff)" d="M21.733 28.973c0.746 0.69 0.749 1.812 0.006 2.505-0.676 0.63-1.735 0.689-2.483 0.176l-0.214-0.171-15.385-14.227c-0.681-0.629-0.743-1.617-0.186-2.311l0.186-0.199 15.385-14.23c0.746-0.69 1.954-0.688 2.697 0.005 0.676 0.63 0.735 1.614 0.18 2.307l-0.185 0.198-14.028 12.975 14.027 12.972z"></path>
</symbol>
<symbol id="icon-Arrow-r-white-big" viewBox="0 0 37 32">
<path fill="none" stroke="#fff" style="stroke: var(--color1, #fff)" stroke-linejoin="round" stroke-linecap="round" stroke-miterlimit="4" stroke-width="4" d="M34.167 15.451h-30"></path>
<path fill="none" stroke="#fff" style="stroke: var(--color1, #fff)" stroke-linejoin="round" stroke-linecap="round" stroke-miterlimit="4" stroke-width="4" d="M22.066 3.402c0 0 12.1 6.522 12.1 12.046 0 5.528-12.1 12.052-12.1 12.052"></path>
</symbol>
<symbol id="icon-arrow-r-black" viewBox="0 0 22 32">
<path d="M3.655 3.027c-0.746-0.69-0.749-1.812-0.006-2.505 0.676-0.63 1.735-0.69 2.483-0.176l0.214 0.171 15.385 14.227c0.681 0.629 0.743 1.617 0.186 2.311l-0.186 0.199-15.385 14.23c-0.746 0.69-1.954 0.688-2.697-0.005-0.676-0.63-0.735-1.614-0.18-2.307l0.185-0.198 14.028-12.975-14.027-12.972z"></path>
</symbol>
<symbol id="icon-arrow-r-black-big" viewBox="0 0 32 32">
<path d="M5.333 15.634c0-0.506 0.376-0.925 0.864-0.991l0.136-0.009h20c0.552 0 1 0.448 1 1 0 0.506-0.376 0.925-0.864 0.991l-0.136 0.009h-20c-0.552 0-1-0.448-1-1z"></path>
<path d="M17.561 8.31c-0.391-0.39-0.393-1.023-0.003-1.414 0.354-0.356 0.91-0.389 1.302-0.1l0.112 0.097 8.067 8.032c0.357 0.355 0.389 0.913 0.097 1.305l-0.097 0.112-8.067 8.033c-0.391 0.39-1.024 0.388-1.414-0.003-0.354-0.356-0.385-0.911-0.094-1.302l0.097-0.112 7.355-7.325-7.355-7.323z"></path>
</symbol>
<symbol id="icon-Arrow" viewBox="0 0 32 32">
<path stroke-linejoin="round" stroke-linecap="round" stroke-miterlimit="4" stroke-width="2.6667" d="M11.333 6.667c0 0 9.333 5.525 9.333 9.333 0 3.807-9.333 9.333-9.333 9.333"></path>
</symbol>
<symbol id="icon-frame" viewBox="0 0 32 32">
<path d="M23.305 25.604c-6.392 5.094-15.328 3.684-20.061-2.158-4.568-5.64-4.283-13.777 0.673-18.926 5.121-5.321 13.171-6.031 19.007-1.666 2.091 1.563 3.652 3.552 4.669 5.96 1.023 2.421 1.334 4.941 0.979 7.539-0.354 2.586-1.386 4.891-3.065 7.042 0.136 0.089 0.281 0.153 0.385 0.257 1.846 1.838 3.685 3.683 5.531 5.521 0.438 0.436 0.655 0.943 0.526 1.554-0.258 1.217-1.706 1.686-2.635 0.851-0.436-0.391-0.836-0.821-1.25-1.235-1.516-1.515-3.032-3.032-4.548-4.547-0.063-0.060-0.129-0.116-0.211-0.192zM25.525 14.378c0.016-6.176-4.97-11.168-11.159-11.178-6.173-0.009-11.155 4.944-11.181 11.116-0.027 6.191 4.949 11.198 11.158 11.226 6.148 0.029 11.167-4.983 11.183-11.165z"></path>
</symbol>
<symbol id="icon-heart" viewBox="0 0 32 32">
<path d="M16 30.22c-0.456 0-0.895-0.165-1.237-0.465-1.293-1.13-2.539-2.193-3.639-3.13l-0.006-0.005c-3.224-2.747-6.008-5.12-7.945-7.457-2.165-2.613-3.174-5.090-3.174-7.796 0-2.629 0.902-5.055 2.539-6.831 1.657-1.797 3.929-2.786 6.401-2.786 1.847 0 3.539 0.584 5.028 1.736 0.751 0.581 1.433 1.293 2.033 2.123 0.6-0.83 1.281-1.541 2.033-2.123 1.489-1.152 3.181-1.736 5.028-1.736 2.471 0 4.744 0.99 6.401 2.786 1.637 1.776 2.538 4.201 2.538 6.831 0 2.706-1.008 5.184-3.174 7.796-1.937 2.337-4.721 4.71-7.944 7.457-1.102 0.939-2.35 2.002-3.646 3.136-0.342 0.299-0.781 0.464-1.237 0.464zM8.939 3.624c-1.942 0-3.725 0.775-5.023 2.182-1.317 1.428-2.042 3.403-2.042 5.56 0 2.276 0.846 4.312 2.743 6.6 1.833 2.212 4.56 4.536 7.717 7.227l0.006 0.005c1.104 0.941 2.355 2.007 3.657 3.146 1.31-1.141 2.563-2.209 3.669-3.151 3.157-2.691 5.884-5.014 7.717-7.226 1.896-2.289 2.742-4.324 2.742-6.6 0-2.157-0.725-4.132-2.042-5.56-1.297-1.407-3.081-2.182-5.023-2.182-1.422 0-2.728 0.452-3.881 1.344-1.028 0.795-1.744 1.8-2.163 2.503-0.216 0.362-0.596 0.577-1.016 0.577s-0.801-0.216-1.016-0.577c-0.419-0.703-1.135-1.708-2.163-2.503-1.153-0.892-2.459-1.344-3.881-1.344z"></path>
</symbol>
<symbol id="icon-Logo1" viewBox="0 0 137 32">
<path fill="#46a358" style="fill: var(--color2, #46a358)" d="M15.68 0c-8.661 0-15.68 7.019-15.68 15.68 0 8.11 6.158 14.782 14.054 15.595-0.477-3.926-0.299-7.138 0.307-9.777-0.34-1.637-1.113-4.062-2.865-5.785 0 0 1.153 1.73 1.778 4.055 0 0.004 0.004 0.007 0.004 0.011 0.067 0.248 0.126 0.499 0.177 0.758 0.011 0.059 0.022 0.118 0.033 0.181 0.048 0.266 0.092 0.532 0.122 0.806-8.86-1.087-10.749-9.038-10.542-12.035 9.426 0.521 11.355 6.812 11.636 10.716 3.086-10.11 12.893-10.694 13.702-10.716 0.351 7.77-5.411 13.828-12.302 14.357 0.044-0.211 0.096-0.421 0.148-0.628 0.015-0.063 0.033-0.122 0.052-0.185 0.041-0.148 0.081-0.296 0.129-0.444 0.018-0.063 0.041-0.129 0.059-0.192 0.052-0.163 0.107-0.322 0.163-0.484 0.015-0.037 0.026-0.074 0.041-0.111 0.070-0.192 0.144-0.377 0.218-0.562 0.007-0.015 0.011-0.033 0.018-0.048 0 0 0 0 0.004 0 1.767-4.273 5.027-7.071 5.027-7.071-6.398 3.696-7.478 13.307-7.648 17.17 0.451 0.041 0.902 0.070 1.364 0.070 8.661 0 15.68-7.019 15.68-15.68s-7.019-15.68-15.68-15.68z"></path>
<path fill="#46a358" style="fill: var(--color2, #46a358)" d="M42.701 9.824c2.074 0 3.767 0.891 4.864 2.517l-2.055 1.748c-0.736-1.028-1.626-1.56-2.861-1.56-1.9 0-3.083 1.249-3.083 3.153 0 1.937 1.249 3.238 3.257 3.238 1.079 0 1.937-0.377 2.484-1.009v-0.532h-2.639v-2.536h5.585v3.563c-0.532 0.943-1.286 1.697-2.262 2.277-0.976 0.566-2.074 0.858-3.29 0.858-3.393 0.052-6.199-2.588-6.151-5.859-0.052-3.253 2.758-5.91 6.151-5.859z"></path>
<path fill="#46a358" style="fill: var(--color2, #46a358)" d="M56.647 21.332l-2.55-3.512h-1.216v3.512h-2.946v-11.303h4.436c2.517 0 4.369 1.541 4.369 3.889 0 1.386-0.669 2.536-1.782 3.22l2.979 4.195h-3.29zM52.877 15.251h1.508c0.821 0 1.353-0.532 1.353-1.334s-0.532-1.32-1.353-1.32h-1.508v2.654z"></path>
<path fill="#46a358" style="fill: var(--color2, #46a358)" d="M61.105 10.028h7.844v2.654h-4.898v1.56h3.493v2.465h-3.493v1.97h5.105v2.654h-8.051v-11.303z"></path>
<path fill="#46a358" style="fill: var(--color2, #46a358)" d="M70.989 10.028h7.844v2.654h-4.898v1.56h3.493v2.465h-3.493v1.97h5.105v2.654h-8.051v-11.303z"></path>
<path fill="#46a358" style="fill: var(--color2, #46a358)" d="M90.898 10.028v11.511h-0.943l-6.132-5.944v5.737h-2.946v-11.511h0.943l6.132 5.859v-5.652h2.946z"></path>
<path fill="#46a358" style="fill: var(--color2, #46a358)" d="M94.413 17.495c0.669 0.891 1.371 1.456 2.517 1.456 0.773 0 1.165-0.273 1.165-0.824 0-0.495-0.259-0.651-1.15-1.046l-1.164-0.514c-1.867-0.824-2.861-1.885-2.861-3.408 0-2.003 1.645-3.342 3.955-3.342 1.866 0 3.186 0.891 3.87 2.277l-1.97 1.508c-0.548-0.821-1.061-1.198-1.867-1.198-0.617 0-1.009 0.24-1.009 0.721 0 0.41 0.24 0.636 0.976 0.924l1.301 0.547c1.97 0.824 2.894 1.815 2.894 3.408 0 2.192-1.8 3.53-4.147 3.53-2.036 0-3.682-0.976-4.506-2.536l1.996-1.504z"></path>
<path fill="#46a358" style="fill: var(--color2, #46a358)" d="M102.759 10.028h2.946v4.129h4.129v-4.129h2.946v11.303h-2.946v-4.521h-4.129v4.521h-2.946v-11.303z"></path>
<path fill="#46a358" style="fill: var(--color2, #46a358)" d="M120.542 9.821c3.29-0.070 6.184 2.621 6.114 5.859 0.067 3.271-2.824 5.91-6.114 5.859-3.304 0.052-6.15-2.587-6.080-5.859-0.070-3.238 2.776-5.925 6.080-5.859zM120.557 12.527c-1.815 0-3.082 1.286-3.082 3.153 0 0.943 0.292 1.711 0.858 2.296 0.565 0.566 1.319 0.858 2.224 0.858 1.749 0 3.083-1.268 3.083-3.153 0.004-1.867-1.334-3.153-3.083-3.153z"></path>
<path fill="#46a358" style="fill: var(--color2, #46a358)" d="M128.342 10.028h4.436c2.517 0 4.368 1.541 4.368 3.889 0 2.314-1.9 3.903-4.368 3.903h-1.49v3.512h-2.946v-11.303zM132.793 15.251c0.82 0 1.352-0.532 1.352-1.334s-0.532-1.32-1.352-1.32h-1.509v2.654h1.509z"></path>
</symbol>
<symbol id="icon-Logout-white" viewBox="0 0 32 32">
<path fill="none" stroke="#fff" style="stroke: var(--color1, #fff)" stroke-linejoin="round" stroke-linecap="round" stroke-miterlimit="4" stroke-width="2.6667" d="M30.507 16.179h-17.838"></path>
<path fill="none" stroke="#fff" style="stroke: var(--color1, #fff)" stroke-linejoin="round" stroke-linecap="round" stroke-miterlimit="4" stroke-width="2.6667" d="M26.171 11.859l4.338 4.32-4.338 4.32"></path>
<path fill="none" stroke="#fff" style="stroke: var(--color1, #fff)" stroke-linejoin="round" stroke-linecap="round" stroke-miterlimit="4" stroke-width="2.6667" d="M22.461 9.526c-0.489-5.304-2.474-7.23-10.37-7.23-10.52 0-10.52 3.422-10.52 13.704s0 13.704 10.52 13.704c7.896 0 9.882-1.926 10.37-7.23"></path>
</symbol>
<symbol id="icon-shopping-black" viewBox="0 0 32 32">
<path d="M22.87 26.999h-9.685c-4.135 0-7.499-3.364-7.499-7.499v-7.686c0-3.844-1.916-7.401-5.125-9.517-0.576-0.38-0.735-1.155-0.355-1.731s1.155-0.736 1.731-0.355c1.832 1.208 3.318 2.801 4.381 4.635 0.23 0.257 2.081 2.22 5.117 2.22h14.392c3.926-0.073 7 3.867 5.973 7.657l-1.657 6.603c-0.838 3.341-3.829 5.674-7.273 5.674zM7.871 8.859c0.208 0.96 0.315 1.95 0.315 2.956v7.686c0 2.756 2.243 4.999 4.999 4.999h9.685c2.296 0 4.29-1.556 4.849-3.783l1.657-6.603c0.61-2.252-1.216-4.593-3.549-4.549h-14.392c-1.373 0-2.568-0.296-3.565-0.706zM12.56 30.436c0-0.863-0.699-1.562-1.562-1.562-2.073 0.083-2.071 3.043 0 3.124 0.863 0 1.562-0.7 1.562-1.562zM24.996 30.436c0-0.863-0.699-1.562-1.562-1.562-2.073 0.083-2.071 3.043 0 3.124 0.863 0 1.562-0.7 1.562-1.562zM27.077 13.314c0-0.69-0.56-1.25-1.25-1.25h-13.892c-1.658 0.066-1.657 2.434 0 2.5h13.892c0.69 0 1.25-0.56 1.25-1.25z"></path>
</symbol>
<symbol id="icon-shopping-new" viewBox="0 0 32 32">
<path d="M22.87 26.999h-9.685c-4.135 0-7.499-3.364-7.499-7.499v-7.686c0-3.844-1.916-7.401-5.125-9.517-0.576-0.38-0.735-1.155-0.355-1.731s1.155-0.736 1.731-0.355c1.832 1.208 3.318 2.801 4.381 4.635 0.23 0.257 2.081 2.22 5.117 2.22h14.392c3.926-0.073 7 3.867 5.973 7.657l-1.657 6.603c-0.838 3.341-3.829 5.674-7.273 5.674zM7.871 8.859c0.208 0.96 0.315 1.95 0.315 2.956v7.686c0 2.756 2.243 4.999 4.999 4.999h9.685c2.296 0 4.29-1.556 4.849-3.783l1.657-6.603c0.61-2.252-1.216-4.593-3.549-4.549h-14.392c-1.373 0-2.568-0.296-3.565-0.706zM12.56 30.436c0-0.863-0.699-1.562-1.562-1.562-2.073 0.083-2.071 3.043 0 3.124 0.863 0 1.562-0.7 1.562-1.562zM24.996 30.436c0-0.863-0.699-1.562-1.562-1.562-2.073 0.083-2.071 3.043 0 3.124 0.863 0 1.562-0.7 1.562-1.562zM27.077 13.314c0-0.69-0.56-1.25-1.25-1.25h-13.892c-1.658 0.066-1.657 2.434 0 2.5h13.892c0.69 0 1.25-0.56 1.25-1.25z"></path>
</symbol>
<symbol id="icon-shopping-green" viewBox="0 0 32 32">
<path fill="#46a358" style="fill: var(--color2, #46a358)" d="M22.87 26.999h-9.685c-4.135 0-7.499-3.364-7.499-7.499v-7.686c0-3.844-1.916-7.401-5.125-9.517-0.576-0.38-0.735-1.155-0.355-1.731s1.155-0.736 1.731-0.355c1.832 1.208 3.318 2.801 4.381 4.635 0.23 0.257 2.081 2.22 5.117 2.22h14.392c3.926-0.073 7 3.867 5.973 7.657l-1.657 6.603c-0.838 3.341-3.829 5.674-7.273 5.674zM7.871 8.859c0.208 0.96 0.315 1.95 0.315 2.956v7.686c0 2.756 2.243 4.999 4.999 4.999h9.685c2.296 0 4.29-1.556 4.849-3.783l1.657-6.603c0.61-2.252-1.216-4.593-3.549-4.549h-14.392c-1.373 0-2.568-0.296-3.565-0.706zM12.56 30.436c0-0.863-0.699-1.562-1.562-1.562-2.073 0.083-2.071 3.043 0 3.124 0.863 0 1.562-0.7 1.562-1.562zM24.996 30.436c0-0.863-0.699-1.562-1.562-1.562-2.073 0.083-2.071 3.043 0 3.124 0.863 0 1.562-0.7 1.562-1.562zM27.077 13.314c0-0.69-0.56-1.25-1.25-1.25h-13.892c-1.658 0.066-1.657 2.434 0 2.5h13.892c0.69 0 1.25-0.56 1.25-1.25z"></path>
</symbol>
<symbol id="icon-super-sale-text" viewBox="0 0 102 32">
<path fill="#46a358" style="fill: var(--color2, #46a358)" d="M6.027 0.109h0.097c0.032 0 0.077 0.044 0.133 0.133v9.528c0.089 0.097 0.133 0.185 0.133 0.266v0.097c0 0.081-0.044 0.169-0.133 0.266v0.23h0.133c2.829 0 4.732 0.983 5.707 2.95 0.242 0.629 0.363 1.088 0.363 1.378v0.036c0 0.395-0.218 0.592-0.653 0.592h-1.971c-0.443-0.032-0.665-0.21-0.665-0.532-0.266-0.725-0.592-1.173-0.979-1.342-0.443-0.306-1.088-0.459-1.934-0.459h-0.266c-1.064 0-1.765 0.435-2.104 1.306-0.040 0.201-0.060 0.347-0.060 0.435v0.193c0 0.701 0.83 1.237 2.491 1.608 0.193 0.089 1.169 0.339 2.926 0.75 0.887 0.242 1.628 0.617 2.225 1.124 1.032 0.806 1.548 1.866 1.548 3.18 0 1.91-0.919 3.321-2.757 4.232-1.008 0.484-2.245 0.725-3.712 0.725-1.233 0-2.434-0.25-3.603-0.75-0.572-0.242-1.209-0.725-1.91-1.451-0.564-0.766-0.903-1.64-1.016-2.624v-0.194c0-0.274 0.218-0.427 0.653-0.459h2.043c0.371 0 0.588 0.274 0.653 0.822 0.282 0.766 0.729 1.302 1.342 1.608 0.693 0.306 1.382 0.459 2.068 0.459 0.911 0 1.733-0.266 2.466-0.798 0.33-0.468 0.496-0.85 0.496-1.149 0-1.048-1.096-1.789-3.289-2.225-1.677-0.403-2.99-0.842-3.942-1.318-1.33-0.814-1.995-1.995-1.995-3.543 0-1.282 0.601-2.41 1.802-3.385 0.621-0.5 1.431-0.838 2.43-1.016 0-0.024 0.371-0.077 1.112-0.157 0 0.016 0.012 0.024 0.036 0.024v-0.193c-0.169 0-0.27-0.129-0.302-0.387 0.048-0.226 0.125-0.339 0.23-0.339 0-0.459-0.173-0.875-0.52-1.245-0.032 0.089-0.109 0.133-0.23 0.133h-0.194c-0.177-0.097-0.266-0.218-0.266-0.363v-0.060c0-0.185 0.121-0.306 0.363-0.363h0.060c0.202 0 0.335 0.141 0.399 0.423 0.121 0 0.262 0.185 0.423 0.556h0.036v-8.572c0-0.032 0.044-0.077 0.133-0.133zM5.532 11.874c0 0.314 0.197 0.5 0.592 0.556 0.33-0.073 0.496-0.27 0.496-0.592-0.089-0.306-0.21-0.459-0.363-0.459v0.169c0 0.032-0.044 0.077-0.133 0.133h-0.097c-0.032 0-0.077-0.044-0.133-0.133v-0.169h-0.036c-0.218 0.121-0.326 0.286-0.326 0.496zM20.899 0.279h0.085c0.024 0 0.060 0.036 0.109 0.109v14.594h0.036c0-0.113 0.121-0.278 0.363-0.496 0.056-0.226 0.173-0.338 0.351-0.338h0.024c0.193 0 0.31 0.125 0.351 0.375-0.064 0.21-0.169 0.314-0.314 0.314h-0.097c-0.064 0-0.137-0.040-0.218-0.121-0.29 0.322-0.435 0.657-0.435 1.004v0.060c0.113 0.113 0.169 0.21 0.169 0.29v0.085c0 0.129-0.077 0.226-0.23 0.29l0.459-0.145h0.121c0.226 0 0.407 0.314 0.544 0.943 1.644 5.175 2.466 7.831 2.466 7.968v0.060c0 0.242-0.403 0.451-1.209 0.629-0.387 0.153-0.673 0.23-0.858 0.23-0.129-0.008-0.318-0.218-0.568-0.629-0.081-0.040-0.137-0.060-0.169-0.060-0.145 0.137-0.359 0.435-0.641 0.895-0.87 0.879-1.959 1.318-3.264 1.318h-0.121c-0.919 0-1.693-0.516-2.321-1.548-0.306-0.556-0.927-2.422-1.862-5.598-0.266-0.774-0.399-1.221-0.399-1.342 0-0.274 0.335-0.476 1.004-0.605 0.621-0.226 1.024-0.338 1.209-0.338 0.242 0 0.5 0.564 0.774 1.693 0.798 2.587 1.33 4.135 1.596 4.643 0.355 0.459 0.766 0.689 1.233 0.689h0.121c0.669 0 1.233-0.318 1.693-0.955 0.153-0.282 0.23-0.556 0.23-0.822v-0.23c0-0.548-0.488-2.289-1.463-5.223l-0.206-0.75c0-0.274 0.278-0.472 0.834-0.592l0.484-0.266c-0.097-0.097-0.145-0.181-0.145-0.254v-0.060c0-0.081 0.048-0.177 0.145-0.29v-15.416c0-0.024 0.040-0.060 0.121-0.109zM20.464 17.677c0 0.274 0.173 0.435 0.52 0.484 0.282-0.064 0.423-0.238 0.423-0.52-0.073-0.266-0.177-0.399-0.314-0.399v0.145c0 0.032-0.036 0.069-0.109 0.109h-0.085c-0.032 0-0.073-0.036-0.121-0.109v-0.145h-0.024c-0.193 0.105-0.29 0.25-0.29 0.435zM31.89 0.279h0.097c0.032 0 0.073 0.040 0.121 0.121v13.227h0.036c0-0.121 0.137-0.302 0.411-0.544 0.064-0.25 0.193-0.375 0.387-0.375h0.024c0.218 0 0.347 0.137 0.387 0.411-0.065 0.234-0.181 0.351-0.351 0.351h-0.097c-0.073 0-0.157-0.044-0.254-0.133-0.314 0.355-0.472 0.725-0.472 1.112v0.060c0.121 0.129 0.181 0.238 0.181 0.326v0.097c0 0.137-0.085 0.242-0.254 0.314v0.254c0.58 0 1.346 0.339 2.297 1.016 0.734 0.733 1.241 1.475 1.523 2.225 0.355 1.096 0.532 1.995 0.532 2.696-0.016 0.137-0.024 0.286-0.024 0.447 0 0.048 0.008 0.093 0.024 0.133 0 0.758-0.254 1.656-0.762 2.696-0.903 1.419-2.237 2.128-4.002 2.128-0.725 0-1.507-0.254-2.346-0.762-0.040-0.024-0.093-0.036-0.157-0.036-0.105 0.121-0.157 0.198-0.157 0.23 0 0.016 0.008 0.024 0.024 0.024l-0.024 0.23v0.024l0.798 4.607c0 0.395-0.431 0.592-1.294 0.592-0.484 0.089-0.846 0.133-1.088 0.133h-0.024c-0.314 0-0.496-0.222-0.544-0.665l-2.080-14.195c0-0.339 0.351-0.528 1.052-0.568 0.097 0 0.52-0.052 1.27-0.157 0.242 0 0.443 0.242 0.605 0.725l0.157 0.036c0.129 0 0.351-0.181 0.665-0.544 0.758-0.613 1.435-0.919 2.031-0.919 0-0.064 0.306-0.109 0.919-0.133h0.266v-0.254c-0.113-0.105-0.169-0.197-0.169-0.278v-0.073c0-0.089 0.056-0.193 0.169-0.314v-14.146c0-0.032 0.040-0.073 0.121-0.121zM31.418 16.613c0 0.306 0.189 0.488 0.568 0.544 0.314-0.073 0.472-0.266 0.472-0.58-0.081-0.29-0.197-0.435-0.351-0.435v0.157c0 0.032-0.040 0.073-0.121 0.121h-0.097c-0.032 0-0.073-0.040-0.121-0.121v-0.157h-0.036c-0.21 0.113-0.314 0.27-0.314 0.472zM28.238 20.93c0 1.394 0.411 2.499 1.233 3.313 0.532 0.339 0.955 0.508 1.27 0.508 1.241 0 2.059-0.468 2.454-1.402 0.185-0.371 0.278-0.891 0.278-1.56-0.040-1.902-0.609-3.152-1.705-3.748-0.33-0.145-0.673-0.218-1.028-0.218-1.257 0-2.051 0.625-2.382 1.874-0.081 0.314-0.121 0.725-0.121 1.233zM42.59 0.242h0.097c0.032 0 0.077 0.044 0.133 0.133v12.84c0.162-0.121 0.315-0.314 0.459-0.58 0.073-0.065 0.145-0.097 0.218-0.097h0.072c0.234 0.032 0.351 0.149 0.351 0.351v0.169c-0.089 0.169-0.194 0.254-0.315 0.254h-0.109c-0.073 0-0.17-0.044-0.29-0.133-0.258 0.339-0.387 0.613-0.387 0.822v0.459c0.089 0.089 0.133 0.173 0.133 0.254v0.097c0 0.081-0.044 0.169-0.133 0.266v0.23c0.734 0 1.58 0.294 2.539 0.883 0.862 0.725 1.463 1.451 1.802 2.176 0.202 0.274 0.407 0.85 0.617 1.729v0.073c0 0.314-0.608 0.584-1.826 0.81-3.281 0.87-5.107 1.37-5.477 1.499-0.113 0.121-0.169 0.254-0.169 0.399v0.097c0.242 0.677 0.621 1.165 1.136 1.463 0.347 0.177 0.633 0.266 0.859 0.266h0.218c1.282 0 2.217-0.532 2.805-1.596 0.194-0.5 0.512-0.75 0.955-0.75 0.475-0.153 0.899-0.262 1.269-0.326 0.282 0 0.423 0.141 0.423 0.423 0 0.645-0.282 1.427-0.846 2.346-0.669 0.903-1.616 1.532-2.841 1.886-0.661 0.242-1.39 0.363-2.189 0.363-0.83-0.081-1.471-0.222-1.922-0.423-1.201-0.556-2.080-1.415-2.636-2.575-0.5-0.951-0.75-2.019-0.75-3.204v-0.097c0-0.048-0.012-0.089-0.036-0.121 0.097-1.088 0.435-2.068 1.016-2.938 0.709-1.032 1.729-1.749 3.059-2.152 0.613-0.177 1.157-0.266 1.632-0.266v-0.133c-0.145 0-0.242-0.109-0.29-0.326v-0.060c0.048-0.242 0.145-0.363 0.29-0.363v-14.013c0-0.032 0.045-0.077 0.133-0.133zM42.094 16.541c0 0.314 0.197 0.5 0.592 0.556 0.323-0.064 0.484-0.258 0.484-0.58-0.081-0.306-0.198-0.459-0.351-0.459v0.157c0 0.040-0.044 0.085-0.133 0.133h-0.097c-0.032 0-0.077-0.044-0.133-0.133v-0.157h-0.036c-0.218 0.121-0.326 0.282-0.326 0.484zM39.591 19.999c0 0.234 0.097 0.407 0.29 0.52h0.157c0.274 0 1.612-0.347 4.014-1.040 0.113-0.113 0.169-0.21 0.169-0.29v-0.097c0-0.33-0.339-0.733-1.016-1.209-0.322-0.177-0.649-0.266-0.979-0.266-1.048 0-1.85 0.459-2.406 1.378-0.153 0.395-0.23 0.73-0.23 1.004zM50.219 0.194h0.097c0.040 0 0.085 0.044 0.133 0.133v12.768h0.036c0-0.129 0.141-0.314 0.423-0.556 0.065-0.266 0.198-0.399 0.399-0.399h0.036c0.218 0 0.347 0.141 0.387 0.423-0.064 0.242-0.185 0.363-0.363 0.363h-0.097c-0.080 0-0.169-0.044-0.266-0.133-0.322 0.363-0.483 0.746-0.483 1.149v0.073c0.129 0.129 0.193 0.238 0.193 0.326v0.097c0 0.145-0.088 0.254-0.266 0.326v0.073c0.903 0.056 1.354 0.165 1.354 0.326 0.040 0.137 0.061 0.234 0.061 0.29v0.459c0 0.258 0.064 0.423 0.193 0.496 0.121-0.008 0.331-0.161 0.629-0.459 0.798-0.637 1.604-0.955 2.418-0.955h0.266c0.548 0 0.822 0.23 0.822 0.689-0.081 1.403-0.202 2.104-0.363 2.104-0.081 0.040-0.17 0.060-0.266 0.060h-0.157c-0.097 0-0.339-0.020-0.725-0.060-1.29 0-2.152 0.459-2.587 1.378-0.282 0.266-0.492 1.161-0.629 2.684-0.185 2.757-0.358 4.135-0.52 4.135-0.161 0.064-0.294 0.097-0.399 0.097-1.612-0.056-2.418-0.23-2.418-0.52l-0.036-0.206c0.573-6.658 0.891-10.088 0.955-10.289 0.113-0.202 0.318-0.302 0.616-0.302 0.186 0.024 0.326 0.036 0.423 0.036v-0.073c-0.105-0.113-0.157-0.21-0.157-0.29v-0.060c0-0.097 0.053-0.21 0.157-0.339v-13.711c0-0.032 0.044-0.077 0.133-0.133zM49.736 16.178c0 0.314 0.193 0.5 0.58 0.556 0.331-0.073 0.496-0.27 0.496-0.592-0.080-0.306-0.202-0.459-0.363-0.459v0.169c0 0.032-0.044 0.077-0.133 0.133h-0.097c-0.032 0-0.077-0.044-0.133-0.133v-0.169h-0.024c-0.218 0.121-0.326 0.286-0.326 0.496zM68.029 0.109h0.097c0.032 0 0.077 0.044 0.133 0.133v9.528c0.088 0.097 0.133 0.185 0.133 0.266v0.097c0 0.081-0.045 0.169-0.133 0.266v0.23h0.133c2.829 0 4.731 0.983 5.707 2.95 0.242 0.629 0.363 1.088 0.363 1.378v0.036c0 0.395-0.218 0.592-0.653 0.592h-1.971c-0.443-0.032-0.665-0.21-0.665-0.532-0.266-0.725-0.593-1.173-0.979-1.342-0.443-0.306-1.088-0.459-1.934-0.459h-0.266c-1.064 0-1.765 0.435-2.104 1.306-0.040 0.201-0.061 0.347-0.061 0.435v0.193c0 0.701 0.83 1.237 2.491 1.608 0.194 0.089 1.169 0.339 2.926 0.75 0.887 0.242 1.628 0.617 2.225 1.124 1.032 0.806 1.547 1.866 1.547 3.18 0 1.91-0.919 3.321-2.757 4.232-1.008 0.484-2.245 0.725-3.712 0.725-1.233 0-2.434-0.25-3.603-0.75-0.572-0.242-1.209-0.725-1.91-1.451-0.564-0.766-0.903-1.64-1.016-2.624v-0.194c0-0.274 0.218-0.427 0.653-0.459h2.043c0.371 0 0.589 0.274 0.653 0.822 0.282 0.766 0.73 1.302 1.342 1.608 0.693 0.306 1.382 0.459 2.067 0.459 0.911 0 1.733-0.266 2.467-0.798 0.331-0.468 0.496-0.85 0.496-1.149 0-1.048-1.096-1.789-3.288-2.225-1.677-0.403-2.99-0.842-3.942-1.318-1.33-0.814-1.995-1.995-1.995-3.543 0-1.282 0.6-2.41 1.802-3.385 0.621-0.5 1.431-0.838 2.43-1.016 0-0.024 0.371-0.077 1.112-0.157 0 0.016 0.012 0.024 0.037 0.024v-0.193c-0.17 0-0.27-0.129-0.302-0.387 0.048-0.226 0.125-0.339 0.23-0.339 0-0.459-0.173-0.875-0.52-1.245-0.032 0.089-0.109 0.133-0.23 0.133h-0.193c-0.178-0.097-0.266-0.218-0.266-0.363v-0.060c0-0.185 0.121-0.306 0.363-0.363h0.061c0.202 0 0.334 0.141 0.399 0.423 0.121 0 0.262 0.185 0.423 0.556h0.037v-8.572c0-0.032 0.044-0.077 0.133-0.133zM67.533 11.874c0 0.314 0.198 0.5 0.593 0.556 0.33-0.073 0.496-0.27 0.496-0.592-0.089-0.306-0.21-0.459-0.363-0.459v0.169c0 0.032-0.045 0.077-0.133 0.133h-0.097c-0.032 0-0.077-0.044-0.133-0.133v-0.169h-0.037c-0.218 0.121-0.326 0.286-0.326 0.496zM82.743 0.254h0.085c0.032 0 0.077 0.040 0.133 0.121v14.594c0.081 0.089 0.121 0.173 0.121 0.254v0.097c0 0.073-0.040 0.153-0.121 0.242v0.036c0.629 0.177 1.141 0.605 1.536 1.282 0.226 0.717 0.697 2.946 1.415 6.686 0.33 0.975 0.496 1.499 0.496 1.572 0 0.242-0.532 0.427-1.596 0.556-0.202 0.089-0.451 0.133-0.749 0.133-0.162 0-0.403-0.157-0.726-0.472h-0.218c-1.185 1.128-2.6 1.693-4.244 1.693h-0.181c-0.693 0-1.362-0.282-2.007-0.846-0.605-0.766-0.907-1.527-0.907-2.285 0-1.612 1.108-2.733 3.325-3.361 0.814-0.274 1.536-0.548 2.164-0.822 0.435-0.306 0.653-0.596 0.653-0.87 0-0.661-0.282-1.112-0.846-1.354-0.185-0.040-0.322-0.060-0.411-0.060h-0.278c-0.653 0-1.237 0.198-1.753 0.592-0.258 0.202-0.447 0.633-0.568 1.294 0 0.177-0.806 0.387-2.418 0.629-0.21 0-0.334-0.149-0.375-0.447 0-1.499 0.806-2.616 2.418-3.349 1.282-0.548 2.547-0.822 3.796-0.822 0.137 0 0.427 0.020 0.871 0.060l-0.024-0.060v-0.097c0.040-0.21 0.113-0.314 0.218-0.314 0-0.427-0.169-0.822-0.508-1.185-0.080 0.081-0.161 0.121-0.242 0.121h-0.097c-0.161 0-0.278-0.113-0.351-0.339 0.048-0.274 0.178-0.411 0.387-0.411h0.024c0.178 0 0.323 0.145 0.435 0.435 0.186 0.121 0.314 0.29 0.387 0.508h0.024v-13.687c0-0.032 0.044-0.073 0.133-0.121zM82.272 16.976c0 0.306 0.186 0.484 0.556 0.532 0.315-0.064 0.472-0.25 0.472-0.556-0.080-0.298-0.194-0.447-0.339-0.447v0.157c0 0.032-0.044 0.077-0.133 0.133h-0.085c-0.040 0-0.085-0.044-0.133-0.133v-0.157h-0.024c-0.21 0.121-0.315 0.278-0.315 0.472zM78.693 23.348v0.181c0.097 0.879 0.472 1.318 1.125 1.318 0 0.024 0.096 0.036 0.29 0.036h0.314c0.621 0 1.237-0.282 1.85-0.846 0.266-0.459 0.399-0.879 0.399-1.257 0-0.677-0.105-1.189-0.314-1.536-0.081-0.040-0.153-0.060-0.218-0.060-1.354 0.476-2.293 0.862-2.817 1.161-0.419 0.387-0.629 0.721-0.629 1.004zM87.918 0.315h0.097c0.032 0 0.077 0.044 0.133 0.133v8.754c0.161-0.121 0.314-0.314 0.459-0.58 0.081-0.073 0.157-0.109 0.23-0.109h0.061c0.242 0.040 0.363 0.161 0.363 0.363v0.169c-0.089 0.177-0.197 0.266-0.326 0.266h-0.097c-0.080 0-0.177-0.044-0.29-0.133-0.266 0.33-0.399 0.605-0.399 0.822v0.459c0.089 0.089 0.133 0.173 0.133 0.254v0.097c0 0.081-0.044 0.169-0.133 0.266v0.326h0.036c0.895 0 1.342 0.101 1.342 0.302 0.040 0.161 0.061 0.314 0.061 0.459l0.048 14.025c0.064 1.548-0.145 2.225-0.629 2.031v0.036l-0.399-0.036h-1.112c-0.637 0-0.955-0.173-0.955-0.52v-15.706c0-0.395 0.294-0.592 0.883-0.592h0.363v-0.254c-0.145 0-0.242-0.113-0.29-0.339v-0.060c0.048-0.242 0.145-0.363 0.29-0.363v-9.939c0-0.032 0.044-0.077 0.133-0.133zM87.422 12.551c0 0.314 0.197 0.5 0.592 0.556 0.331-0.065 0.496-0.258 0.496-0.58-0.088-0.306-0.21-0.459-0.363-0.459v0.157c0 0.032-0.044 0.077-0.133 0.133h-0.097c-0.032 0-0.077-0.044-0.133-0.133v-0.157h-0.036c-0.218 0.121-0.326 0.282-0.326 0.484zM96.007 0.242h0.097c0.032 0 0.077 0.044 0.133 0.133v12.84c0.161-0.121 0.314-0.314 0.459-0.58 0.073-0.065 0.145-0.097 0.218-0.097h0.073c0.234 0.032 0.35 0.149 0.35 0.351v0.169c-0.088 0.169-0.194 0.254-0.314 0.254h-0.109c-0.072 0-0.169-0.044-0.29-0.133-0.258 0.339-0.387 0.613-0.387 0.822v0.459c0.089 0.089 0.133 0.173 0.133 0.254v0.097c0 0.081-0.044 0.169-0.133 0.266v0.23c0.734 0 1.58 0.294 2.539 0.883 0.862 0.725 1.463 1.451 1.802 2.176 0.202 0.274 0.407 0.85 0.617 1.729v0.073c0 0.314-0.609 0.584-1.826 0.81-3.28 0.87-5.106 1.37-5.477 1.499-0.113 0.121-0.169 0.254-0.169 0.399v0.097c0.242 0.677 0.621 1.165 1.136 1.463 0.347 0.177 0.633 0.266 0.858 0.266h0.218c1.282 0 2.216-0.532 2.805-1.596 0.194-0.5 0.512-0.75 0.955-0.75 0.476-0.153 0.899-0.262 1.27-0.326 0.282 0 0.423 0.141 0.423 0.423 0 0.645-0.282 1.427-0.846 2.346-0.669 0.903-1.616 1.532-2.842 1.886-0.661 0.242-1.39 0.363-2.188 0.363-0.83-0.081-1.471-0.222-1.923-0.423-1.201-0.556-2.080-1.415-2.636-2.575-0.499-0.951-0.749-2.019-0.749-3.204v-0.097c0-0.048-0.012-0.089-0.037-0.121 0.097-1.088 0.435-2.068 1.016-2.938 0.709-1.032 1.729-1.749 3.059-2.152 0.613-0.177 1.157-0.266 1.632-0.266v-0.133c-0.145 0-0.242-0.109-0.29-0.326v-0.060c0.048-0.242 0.145-0.363 0.29-0.363v-14.013c0-0.032 0.044-0.077 0.133-0.133zM95.511 16.541c0 0.314 0.197 0.5 0.592 0.556 0.322-0.064 0.484-0.258 0.484-0.58-0.081-0.306-0.198-0.459-0.351-0.459v0.157c0 0.040-0.044 0.085-0.133 0.133h-0.097c-0.032 0-0.077-0.044-0.133-0.133v-0.157h-0.036c-0.218 0.121-0.326 0.282-0.326 0.484zM93.008 19.999c0 0.234 0.097 0.407 0.29 0.52h0.157c0.274 0 1.612-0.347 4.014-1.040 0.113-0.113 0.17-0.21 0.17-0.29v-0.097c0-0.33-0.339-0.733-1.016-1.209-0.323-0.177-0.649-0.266-0.979-0.266-1.048 0-1.85 0.459-2.406 1.378-0.153 0.395-0.23 0.73-0.23 1.004z"></path>
</symbol>
</defs>
</svg>
